<svg width="12" height="12" viewBox="0 0 12 12" fill="none" xmlns="http://www.w3.org/2000/svg">
<g clip-path="url(#clip0_37_128)">
<path d="M9.16933 10.282C9.16967 10.282 9.17 10.282 9.17033 10.2817C9.17033 10.2817 9.17067 10.2817 9.17067 10.2813L9.16933 10.282ZM9.36467 10.2293C9.295 10.2293 9.22367 10.2453 9.17033 10.2817C8.28333 10.9393 7.18867 11.3333 6 11.3333C3.05467 11.3333 0.666667 8.94567 0.666667 6C0.666667 3.05433 3.05467 0.666667 6 0.666667C8.94133 0.666667 11.3257 3.048 11.3327 5.98767L11.9993 5.983C11.99 2.67733 9.308 0 6 0C2.68633 0 0 2.68633 0 6C0 9.31367 2.68633 12 6 12C7.30267 12 8.502 11.577 9.485 10.8713C9.60933 10.8227 9.698 10.7037 9.698 10.5623C9.698 10.3783 9.54867 10.2293 9.36467 10.2293ZM11.3333 6C11.3333 6.92067 10.5873 7.66667 9.66667 7.66667C8.746 7.66667 8 6.92067 8 6V4.33333C8 4.149 7.851 4 7.66667 4C7.48233 4 7.33333 4.149 7.33333 4.33333V4.51933C6.97867 4.2 6.51433 4 6 4C4.89533 4 4 4.89567 4 6C4 7.10433 4.89533 8 6 8C6.681 8 7.28067 7.65833 7.64167 7.13867C8.04167 7.84833 8.79367 8.33333 9.66667 8.33333C10.9553 8.33333 12 7.28867 12 6H11.3333ZM6 7.33333C5.26367 7.33333 4.66667 6.73633 4.66667 6C4.66667 5.26367 5.26367 4.66667 6 4.66667C6.73633 4.66667 7.33333 5.26367 7.33333 6C7.33333 6.73633 6.73633 7.33333 6 7.33333Z" fill="#943D36"/>
</g>
<defs>
<clipPath id="clip0_37_128">
<rect width="12" height="12" fill="white"/>
</clipPath>
</defs>
</svg>
