<svg width="64" height="64" viewBox="0 0 64 64" fill="none" xmlns="http://www.w3.org/2000/svg">
<path fill-rule="evenodd" clip-rule="evenodd" d="M41.6625 1.9125H49.3625V0.75H41.6625C39.7875 0.75 38.15 1.9625 37.6 3.75L35.4 11.1375H17.6875C16.825 11.1375 16.0125 11.5 15.4375 12.1375C14.8625 12.775 14.5875 13.625 14.675 14.4875L20 60.525C20.1625 62.075 21.45 63.25 23.0125 63.25H37.5125C39.075 63.25 40.375 62.075 40.525 60.5375L45.8625 14.4875C45.95 13.6375 45.675 12.7875 45.1 12.15C44.525 11.5125 43.7 11.15 42.85 11.15H36.6125L38.7 4.1125C39.1125 2.7875 40.2875 1.9125 41.6625 1.9125ZM17.425 25.7125L16.1125 14.3375C16.0625 13.8875 16.2125 13.45 16.5125 13.1125C16.8125 12.775 17.2375 12.5875 17.6875 12.5875H34.975L31.075 25.7125H17.425ZM32.9625 38.225L32.3125 36.175C32.0375 35.3 31.225 34.7125 30.3125 34.7125C30.1 34.7125 29.8875 34.75 29.675 34.8125L28.65 35.1375L30.0125 31.7875C30.25 31.2 30.925 30.9125 31.525 31.15L34.975 32.5625C35.5625 32.8 35.85 33.475 35.6125 34.075L34.2 37.525C34 38.025 33.475 38.3 32.9625 38.225ZM32.25 42.925L27.575 44.4125C26.775 44.6625 25.925 44.225 25.6625 43.425L24.2 38.75C23.95 37.95 24.3875 37.1 25.1875 36.8375L29.8625 35.35C30.6625 35.1 31.5125 35.5375 31.775 36.3375L33.2625 41.0125C33.5 41.825 33.05 42.675 32.25 42.925ZM24.475 52.6875L23.7125 47.7C23.5875 46.85 24.175 46.05 25.025 45.9125L30.0125 45.15C30.8625 45.025 31.6625 45.6125 31.8 46.4625L32.5625 51.45C32.6875 52.3 32.1 53.1 31.25 53.2375L26.2625 54C25.4 54.125 24.6 53.5375 24.475 52.6875ZM33.2125 55.2L31.6125 58.5625C31.3375 59.1375 30.65 59.3875 30.075 59.1125L26.7125 57.5125C26.1375 57.2375 25.8875 56.55 26.1625 55.975L26.8625 54.4875L31.325 53.8125C31.6625 53.7625 31.9625 53.6375 32.225 53.45L32.6625 53.65C33.25 53.9375 33.4875 54.625 33.2125 55.2ZM35.8375 44.925L34.2375 48.2875C33.975 48.85 33.325 49.0875 32.75 48.85L32.375 46.375C32.2125 45.3375 31.3 44.55 30.25 44.55C30.1375 44.55 30.0375 44.5625 29.925 44.575L29.25 44.675L29.3625 44.4375L32.425 43.4625C32.9125 43.3125 33.3125 42.9875 33.575 42.5625L35.275 43.3625C35.8625 43.6625 36.1125 44.35 35.8375 44.925ZM42.85 12.5875C43.3 12.5875 43.725 12.775 44.025 13.1125C44.325 13.45 44.475 13.8875 44.425 14.325L43.1125 25.7125H32.3L36.2 12.5875H42.85Z" fill="#382020"/>
</svg>
