<svg width="64" height="64" viewBox="0 0 64 64" fill="none" xmlns="http://www.w3.org/2000/svg">
<g clip-path="url(#clip0_29_23)">
<path d="M41 8C40.8314 7.99953 40.6654 8.04222 40.518 8.124L0.517994 30.124C0.465404 30.1575 0.416175 30.196 0.370994 30.239C0.338704 30.262 0.30766 30.2867 0.277994 30.313C0.194299 30.3983 0.126562 30.4978 0.077994 30.607C0.072994 30.619 0.072994 30.633 0.067994 30.646C0.029684 30.7479 0.00807257 30.8553 0.00399402 30.964C0.00399402 30.977 -0.00300598 30.987 -0.00300598 31V55C-0.00300598 55.2652 0.102351 55.5196 0.289887 55.7071C0.477424 55.8946 0.731778 56 0.996994 56H63C63.2652 56 63.5196 55.8946 63.7071 55.7071C63.8946 55.5196 64 55.2652 64 55V31C63.9931 24.9021 61.5677 19.056 57.2558 14.7441C52.944 10.4323 47.0979 8.00689 41 8ZM41.254 10C46.6045 10.0712 51.7265 12.1796 55.5768 15.8955C59.4271 19.6114 61.7159 24.6554 61.977 30H59.766C59.3459 28.5856 58.6483 27.2691 57.714 26.1271C56.7796 24.9852 55.6272 24.0408 54.324 23.349C53.7677 20.8307 52.3661 18.5786 50.3524 16.9673C48.3386 15.3559 45.834 14.4824 43.255 14.492C42.937 14.492 42.611 14.508 42.271 14.541L42.26 14.519C41.7005 13.115 40.8163 11.8635 39.68 10.867L41.254 10ZM52.044 26.7L50.578 26.006L50.339 24.452C50.0572 22.7794 49.1901 21.2614 47.8924 20.1691C46.5948 19.0768 44.9511 18.4813 43.255 18.489C42.8923 18.4947 42.5305 18.5251 42.172 18.58L39.89 18.915L38.885 16.915C38.047 15.3808 36.6851 14.1992 35.048 13.586L37.99 12.115C39.214 12.837 39.749 13.93 40.463 15.389L40.796 16.063C40.891 16.2521 41.0436 16.4061 41.2317 16.503C41.4199 16.5998 41.6339 16.6345 41.843 16.602C42.3099 16.5261 42.782 16.4867 43.255 16.484C45.4469 16.4689 47.5731 17.232 49.2551 18.6377C50.9371 20.0433 52.0657 22.0002 52.44 24.16C52.4648 24.3216 52.5288 24.4746 52.6264 24.6057C52.724 24.7368 52.8523 24.842 53 24.912C55.1632 25.933 56.8419 27.7588 57.678 30H55.41C54.7003 28.5472 53.5116 27.3835 52.044 26.705V26.7ZM32.148 15.01C33.1448 15.017 34.1232 15.2792 34.99 15.7714C35.8569 16.2636 36.5832 16.9696 37.1 17.822L38.428 20.464C38.5224 20.6518 38.6737 20.805 38.8602 20.902C39.0467 20.9989 39.259 21.0346 39.467 21.004L42.451 20.565C42.7158 20.524 42.9831 20.5003 43.251 20.494C44.4698 20.4836 45.6526 20.9069 46.5881 21.6882C47.5236 22.4695 48.1509 23.5579 48.358 24.759L48.678 26.84C48.7028 27.0016 48.7668 27.1546 48.8644 27.2857C48.962 27.4168 49.0903 27.522 49.238 27.592L51.185 28.513C51.9104 28.8571 52.545 29.3663 53.038 30H4.89399L32.148 15.01ZM1.99999 44H58V46H1.99999V44ZM58 42H1.99999V36H58V42ZM1.99999 54V48H58V54H1.99999ZM62 54H60V35C60 34.7348 59.8946 34.4804 59.7071 34.2929C59.5196 34.1054 59.2652 34 59 34H1.99999V32H62V54Z" fill="#382020"/>
<path d="M36 20.142V18C36 17.7348 35.8946 17.4804 35.7071 17.2929C35.5196 17.1054 35.2652 17 35 17C34.7348 17 34.4804 17.1054 34.2929 17.2929C34.1054 17.4804 34 17.7348 34 18V20.142C33.0573 20.3854 32.2358 20.9642 31.6894 21.77C31.143 22.5758 30.9092 23.5532 31.0319 24.519C31.1546 25.4848 31.6253 26.3727 32.3558 27.0163C33.0863 27.6599 34.0264 28.015 35 28.015C35.9736 28.015 36.9137 27.6599 37.6442 27.0163C38.3747 26.3727 38.8454 25.4848 38.9681 24.519C39.0908 23.5532 38.857 22.5758 38.3106 21.77C37.7642 20.9642 36.9427 20.3854 36 20.142ZM35 26C34.5604 26.0011 34.1328 25.8569 33.7836 25.5899C33.4345 25.3228 33.1833 24.9479 33.0693 24.5234C32.9552 24.0989 32.9846 23.6486 33.153 23.2425C33.3213 22.8364 33.6191 22.4973 34 22.278V23C34 23.2652 34.1054 23.5196 34.2929 23.7071C34.4804 23.8946 34.7348 24 35 24C35.2652 24 35.5196 23.8946 35.7071 23.7071C35.8946 23.5196 36 23.2652 36 23V22.278C36.3809 22.4973 36.6787 22.8364 36.847 23.2425C37.0153 23.6486 37.0448 24.0989 36.9307 24.5234C36.8166 24.9479 36.5655 25.3228 36.2163 25.5899C35.8672 25.8569 35.4396 26.0011 35 26Z" fill="#382020"/>
</g>
<defs>
<clipPath id="clip0_29_23">
<rect width="64" height="64" fill="white"/>
</clipPath>
</defs>
</svg>
