<svg width="32" height="32" viewBox="0 0 32 32" fill="none" xmlns="http://www.w3.org/2000/svg">
<path d="M7.64701 26.6443C6.54901 26.6443 5.61479 26.2598 4.84434 25.4907C4.07412 24.7216 3.68901 23.7877 3.68901 22.689H1.33334V7.55567C1.33334 6.95567 1.55368 6.43522 1.99434 5.99433C2.43523 5.55367 2.95568 5.33333 3.55568 5.33333H22.6443V10.8223H26.311L30.6667 16.6223V22.689H28.2C28.2 23.7877 27.8157 24.7216 27.047 25.4907C26.2783 26.2598 25.345 26.6443 24.247 26.6443C23.149 26.6443 22.2148 26.2598 21.4443 25.4907C20.6741 24.7216 20.289 23.7877 20.289 22.689H11.6C11.6 23.7852 11.2157 24.7186 10.447 25.489C9.67834 26.2592 8.74501 26.6443 7.64701 26.6443ZM7.64434 24.4223C8.1259 24.4223 8.53523 24.2538 8.87234 23.9167C9.20923 23.5796 9.37768 23.1703 9.37768 22.689C9.37768 22.2074 9.20923 21.7981 8.87234 21.461C8.53523 21.1241 8.1259 20.9557 7.64434 20.9557C7.16301 20.9557 6.75379 21.1241 6.41668 21.461C6.07957 21.7981 5.91101 22.2074 5.91101 22.689C5.91101 23.1703 6.07957 23.5796 6.41668 23.9167C6.75379 24.2538 7.16301 24.4223 7.64434 24.4223ZM3.55568 20.4667H4.40001C4.77779 19.9333 5.24101 19.5074 5.78968 19.189C6.33857 18.8703 6.94968 18.711 7.62301 18.711C8.29657 18.711 8.91112 18.874 9.46668 19.2C10.0222 19.526 10.4889 19.9482 10.8667 20.4667H20.4223V7.55567H3.55568V20.4667ZM24.2443 24.4223C24.7259 24.4223 25.1352 24.2538 25.4723 23.9167C25.8092 23.5796 25.9777 23.1703 25.9777 22.689C25.9777 22.2074 25.8092 21.7981 25.4723 21.461C25.1352 21.1241 24.7259 20.9557 24.2443 20.9557C23.763 20.9557 23.3538 21.1241 23.0167 21.461C22.6796 21.7981 22.511 22.2074 22.511 22.689C22.511 23.1703 22.6796 23.5796 23.0167 23.9167C23.3538 24.2538 23.763 24.4223 24.2443 24.4223ZM22.6443 17.6667H28.6667L25.2 13.0443H22.6443V17.6667Z" fill="#382020"/>
</svg>
