<svg width="32" height="32" viewBox="0 0 32 32" fill="none" xmlns="http://www.w3.org/2000/svg">
<path d="M29.3333 7.55567V24.4443C29.3333 25.0443 29.113 25.5648 28.6723 26.0057C28.2314 26.4463 27.711 26.6667 27.111 26.6667H4.88899C4.28899 26.6667 3.76855 26.4463 3.32766 26.0057C2.88699 25.5648 2.66666 25.0443 2.66666 24.4443V7.55567C2.66666 6.95567 2.88699 6.43522 3.32766 5.99433C3.76855 5.55367 4.28899 5.33333 4.88899 5.33333H27.111C27.711 5.33333 28.2314 5.55367 28.6723 5.99433C29.113 6.43522 29.3333 6.95567 29.3333 7.55567ZM4.88899 10.8667H27.111V7.55567H4.88899V10.8667ZM4.88899 15.511V24.4443H27.111V15.511H4.88899Z" fill="#382020"/>
</svg>
