<svg width="32" height="32" viewBox="0 0 32 32" fill="none" xmlns="http://www.w3.org/2000/svg">
<path d="M7.80002 22.8C8.93335 21.9333 10.2 21.25 11.6 20.75C13 20.25 14.4667 20 16 20C17.5334 20 19 20.25 20.4 20.75C21.8 21.25 23.0667 21.9333 24.2 22.8C24.9778 21.8889 25.5834 20.8555 26.0167 19.7C26.45 18.5444 26.6667 17.3111 26.6667 16C26.6667 13.0444 25.6278 10.5278 23.55 8.44999C21.4722 6.37221 18.9556 5.33332 16 5.33332C13.0445 5.33332 10.5278 6.37221 8.45002 8.44999C6.37224 10.5278 5.33335 13.0444 5.33335 16C5.33335 17.3111 5.55002 18.5444 5.98335 19.7C6.41669 20.8555 7.02224 21.8889 7.80002 22.8ZM16 17.3333C14.6889 17.3333 13.5834 16.8833 12.6834 15.9833C11.7834 15.0833 11.3334 13.9778 11.3334 12.6667C11.3334 11.3555 11.7834 10.25 12.6834 9.34999C13.5834 8.44999 14.6889 7.99999 16 7.99999C17.3111 7.99999 18.4167 8.44999 19.3167 9.34999C20.2167 10.25 20.6667 11.3555 20.6667 12.6667C20.6667 13.9778 20.2167 15.0833 19.3167 15.9833C18.4167 16.8833 17.3111 17.3333 16 17.3333ZM16 29.3333C14.1556 29.3333 12.4222 28.9833 10.8 28.2833C9.1778 27.5833 7.76669 26.6333 6.56669 25.4333C5.36669 24.2333 4.41669 22.8222 3.71669 21.2C3.01669 19.5778 2.66669 17.8444 2.66669 16C2.66669 14.1555 3.01669 12.4222 3.71669 10.8C4.41669 9.17777 5.36669 7.76666 6.56669 6.56666C7.76669 5.36666 9.1778 4.41666 10.8 3.71666C12.4222 3.01666 14.1556 2.66666 16 2.66666C17.8445 2.66666 19.5778 3.01666 21.2 3.71666C22.8222 4.41666 24.2334 5.36666 25.4334 6.56666C26.6334 7.76666 27.5834 9.17777 28.2834 10.8C28.9834 12.4222 29.3334 14.1555 29.3334 16C29.3334 17.8444 28.9834 19.5778 28.2834 21.2C27.5834 22.8222 26.6334 24.2333 25.4334 25.4333C24.2334 26.6333 22.8222 27.5833 21.2 28.2833C19.5778 28.9833 17.8445 29.3333 16 29.3333ZM16 26.6667C17.1778 26.6667 18.2889 26.4944 19.3334 26.15C20.3778 25.8055 21.3334 25.3111 22.2 24.6667C21.3334 24.0222 20.3778 23.5278 19.3334 23.1833C18.2889 22.8389 17.1778 22.6667 16 22.6667C14.8222 22.6667 13.7111 22.8389 12.6667 23.1833C11.6222 23.5278 10.6667 24.0222 9.80002 24.6667C10.6667 25.3111 11.6222 25.8055 12.6667 26.15C13.7111 26.4944 14.8222 26.6667 16 26.6667ZM16 14.6667C16.5778 14.6667 17.0556 14.4778 17.4334 14.1C17.8111 13.7222 18 13.2444 18 12.6667C18 12.0889 17.8111 11.6111 17.4334 11.2333C17.0556 10.8555 16.5778 10.6667 16 10.6667C15.4222 10.6667 14.9445 10.8555 14.5667 11.2333C14.1889 11.6111 14 12.0889 14 12.6667C14 13.2444 14.1889 13.7222 14.5667 14.1C14.9445 14.4778 15.4222 14.6667 16 14.6667Z" fill="#382020"/>
</svg>
