<svg width="64" height="64" viewBox="0 0 64 64" fill="none" xmlns="http://www.w3.org/2000/svg">
<path d="M58.1333 37.3331C55.6624 49.5051 44.9011 58.6664 32 58.6664C17.2724 58.6664 5.33333 46.7275 5.33333 31.9997C5.33333 18.1722 15.8578 6.80278 29.3333 5.46486" stroke="#382020" stroke-width="1.5" stroke-linecap="round" stroke-linejoin="round"/>
<path d="M17.3333 26.6667C16.597 26.6667 16 26.0697 16 25.3333C16 24.597 16.597 24 17.3333 24C18.0697 24 18.6667 24.597 18.6667 25.3333C18.6667 26.0697 18.0697 26.6667 17.3333 26.6667Z" stroke="#382020" stroke-width="1.5" stroke-linecap="round" stroke-linejoin="round"/>
<path d="M54.6667 10.6667C53.9304 10.6667 53.3333 10.0697 53.3333 9.33333C53.3333 8.59696 53.9304 8 54.6667 8C55.4029 8 56 8.59696 56 9.33333C56 10.0697 55.4029 10.6667 54.6667 10.6667Z" stroke="#382020" stroke-width="1.5" stroke-linecap="round" stroke-linejoin="round"/>
<path d="M32 50.6667C30.5272 50.6667 29.3333 49.4728 29.3333 48C29.3333 46.5272 30.5272 45.3333 32 45.3333C33.4728 45.3333 34.6667 46.5272 34.6667 48C34.6667 49.4728 33.4728 50.6667 32 50.6667Z" stroke="#382020" stroke-width="1.5" stroke-linecap="round" stroke-linejoin="round"/>
<path d="M18.6667 40.0267L18.6933 39.9971" stroke="#382020" stroke-width="1.5" stroke-linecap="round" stroke-linejoin="round"/>
<path d="M45.3333 40.0267L45.36 39.9971" stroke="#382020" stroke-width="1.5" stroke-linecap="round" stroke-linejoin="round"/>
<path d="M29.3333 32.0267L29.36 31.9971" stroke="#382020" stroke-width="1.5" stroke-linecap="round" stroke-linejoin="round"/>
<path d="M56 24.0267L56.0267 23.997" stroke="#382020" stroke-width="1.5" stroke-linecap="round" stroke-linejoin="round"/>
<path d="M45.3333 16.0267L45.36 15.997" stroke="#382020" stroke-width="1.5" stroke-linecap="round" stroke-linejoin="round"/>
<path d="M29.3333 5.33333C28 9.33333 30.6664 13.3333 34.8947 13.3333C29.3333 22.6667 34.6667 32 48 30.6667C48 37.3333 54.6667 38.6667 57.8661 37.3696" stroke="#382020" stroke-width="1.5" stroke-linecap="round" stroke-linejoin="round"/>
</svg>
