<svg width="32" height="32" viewBox="0 0 32 32" fill="none" xmlns="http://www.w3.org/2000/svg">
<g clip-path="url(#clip0_10_30)">
<path d="M30.9565 4.52175H1.0435C0.467187 4.52175 0 4.98894 0 5.56525V26.4348C0 27.0111 0.467187 27.4783 1.0435 27.4783H30.9566C31.5328 27.4783 32.0001 27.0111 32.0001 26.4348V5.56525C32 4.98894 31.5328 4.52175 30.9565 4.52175ZM29.9131 25.3913H11.1304V24.3478C11.1304 23.7716 10.6632 23.3043 10.0869 23.3043C9.51063 23.3043 9.04344 23.7715 9.04344 24.3478V25.3913H2.08694V6.60869H9.04344V7.65219C9.04344 8.22844 9.51063 8.69569 10.0869 8.69569C10.6632 8.69569 11.1304 8.2285 11.1304 7.65219V6.60869H29.9131V25.3913Z" fill="#382020"/>
<path d="M10.0869 16.6261C9.51068 16.6261 9.04343 17.0933 9.04343 17.6696V21.0087C9.04343 21.5849 9.51061 22.0522 10.0869 22.0522C10.6632 22.0522 11.1304 21.585 11.1304 21.0087V17.6696C11.1304 17.0933 10.6632 16.6261 10.0869 16.6261Z" fill="#382020"/>
<path d="M10.0869 9.94781C9.51068 9.94781 9.04343 10.415 9.04343 10.9913V14.3304C9.04343 14.9067 9.51061 15.3739 10.0869 15.3739C10.6632 15.3739 11.1304 14.9068 11.1304 14.3304V10.9913C11.1304 10.415 10.6632 9.94781 10.0869 9.94781Z" fill="#382020"/>
<path d="M16.3478 8.69563C14.6217 8.69563 13.2174 10.0999 13.2174 11.8261C13.2174 13.5522 14.6217 14.9565 16.3478 14.9565C18.0739 14.9565 19.4783 13.5522 19.4783 11.8261C19.4783 10.0999 18.0739 8.69563 16.3478 8.69563ZM16.3478 12.8696C15.7724 12.8696 15.3043 12.4014 15.3043 11.8261C15.3043 11.2507 15.7724 10.7826 16.3478 10.7826C16.9232 10.7826 17.3913 11.2507 17.3913 11.8261C17.3913 12.4014 16.9232 12.8696 16.3478 12.8696Z" fill="#382020"/>
<path d="M24.6956 17.0435C22.9695 17.0435 21.5652 18.4479 21.5652 20.1739C21.5652 21.9001 22.9695 23.3044 24.6956 23.3044C26.4217 23.3044 27.8261 21.9001 27.8261 20.1739C27.8261 18.4478 26.4217 17.0435 24.6956 17.0435ZM24.6956 21.2174C24.1202 21.2174 23.6521 20.7493 23.6521 20.1739C23.6521 19.5985 24.1202 19.1304 24.6956 19.1304C25.271 19.1304 25.7391 19.5985 25.7391 20.1739C25.7391 20.7493 25.271 21.2174 24.6956 21.2174Z" fill="#382020"/>
<path d="M25.6863 10.8357C25.2789 10.4282 24.6181 10.4282 24.2106 10.8357L15.3565 19.6899C14.9491 20.0974 14.9491 20.7581 15.3565 21.1656C15.5603 21.3693 15.8273 21.4713 16.0943 21.4713C16.3613 21.4713 16.6284 21.3694 16.8321 21.1656L25.6863 12.3114C26.0938 11.9039 26.0938 11.2432 25.6863 10.8357Z" fill="#382020"/>
</g>
<defs>
<clipPath id="clip0_10_30">
<rect width="32" height="32" fill="white"/>
</clipPath>
</defs>
</svg>
