<svg width="32" height="18" viewBox="0 0 32 18" fill="none" xmlns="http://www.w3.org/2000/svg">
<g clip-path="url(#clip0_37_191)">
<path d="M1.70667 0H30.2933C31.2363 0 32 0.684076 32 1.52866V16.4713C32 17.3159 31.2363 18 30.2933 18H1.70667C0.763733 18 0 17.3159 0 16.4713V1.52866C0 0.684076 0.763733 0 1.70667 0Z" fill="black"/>
<path d="M6.42987 6.51967C6.72 6.43177 7.03147 6.38591 7.35573 6.38591C8.77227 6.38591 9.95413 7.28782 10.2229 8.484L12.2283 8.11712C11.7675 6.084 9.76213 4.55151 7.35573 4.55151C6.80533 4.55151 6.27627 4.63177 5.78133 4.78081L6.42987 6.51967Z" fill="#FFF100"/>
<path d="M4.06187 12.344L5.41867 10.9682C4.8128 10.4867 4.43307 9.78731 4.43307 9.00387C4.43307 8.22425 4.8128 7.52107 5.41867 7.04336L4.06187 5.67139C3.0336 6.48922 2.38507 7.67776 2.38507 9.00769C2.38507 10.3338 3.0336 11.5262 4.06187 12.344Z" fill="#00A3DF"/>
<path d="M10.2229 9.53125C9.94987 10.7274 8.77227 11.6255 7.35573 11.6255C7.03147 11.6255 6.72 11.5797 6.4256 11.4918L5.77707 13.2306C6.272 13.3797 6.80533 13.4599 7.35573 13.4599C9.76213 13.4599 11.7675 11.9313 12.2283 9.89813L10.2229 9.53125Z" fill="#EE4023"/>
<path d="M18.9099 10.7617C18.5771 11.0521 18.1291 11.2279 17.6341 11.2203C17.2928 11.2165 16.9771 11.1247 16.7125 10.9719L16.0469 11.9196C16.5035 12.1757 17.0368 12.3286 17.6171 12.3362C18.4576 12.3477 19.2256 12.0496 19.7845 11.5642L18.9099 10.7617ZM17.7067 6.89798C16.0341 6.87505 14.6517 8.07505 14.6261 9.57314C14.6176 10.1349 14.7968 10.6623 15.1168 11.098L20.6123 8.99225C20.3051 7.81135 19.1275 6.92091 17.7067 6.89798ZM15.8848 9.78715C15.8763 9.726 15.872 9.66104 15.872 9.59607C15.8891 8.71327 16.6997 8.00626 17.6853 8.02155C18.2229 8.02919 18.7008 8.24702 19.0208 8.59097L15.8848 9.78715ZM22.3403 5.67505V10.9222L23.3557 11.3005L22.8736 12.3362L21.8667 11.9617C21.6405 11.8738 21.4869 11.74 21.3717 11.5872C21.2608 11.4343 21.1755 11.2203 21.1755 10.9375V5.67505H22.3403Z" fill="white"/>
<path d="M26.0053 8.10186C26.1845 8.04835 26.3723 8.0216 26.5728 8.0216C27.4389 8.0216 28.1557 8.57192 28.3221 9.30186L29.5467 9.07638C29.2651 7.83434 28.0405 6.90186 26.5728 6.90186C26.2357 6.90186 25.9115 6.95154 25.6128 7.03944L26.0053 8.10186ZM24.5589 11.6522L25.3867 10.8152C25.0155 10.521 24.7851 10.0929 24.7851 9.61523C24.7851 9.13752 25.0197 8.7095 25.3867 8.41905L24.5589 7.58211C23.9317 8.07893 23.5349 8.80886 23.5349 9.61905C23.5349 10.4292 23.9317 11.1554 24.5589 11.6522ZM28.3221 9.94007C28.1557 10.67 27.4347 11.2203 26.5728 11.2203C26.3765 11.2203 26.1845 11.1898 26.0053 11.1363L25.6085 12.1987C25.9115 12.2904 26.2357 12.3401 26.5728 12.3401C28.0405 12.3401 29.2651 11.4076 29.5467 10.1655L28.3221 9.94007Z" fill="white"/>
</g>
<defs>
<clipPath id="clip0_37_191">
<rect width="32" height="18" fill="white"/>
</clipPath>
</defs>
</svg>
