<svg width="32" height="32" viewBox="0 0 32 32" fill="none" xmlns="http://www.w3.org/2000/svg">
<path d="M15.5606 31.1572C6.91063 31.1947 -0.201874 23.9947 0.00437556 15.2009C0.198126 6.82594 7.13563 -0.0928083 15.7606 0.000941673C24.3044 0.0946917 31.3731 7.20719 31.1419 16.0134C30.9231 24.3509 24.0419 31.2009 15.5606 31.1572ZM1.89813 15.6009C1.96688 23.4322 8.31688 29.4634 15.8169 29.3322C23.0794 29.2009 29.2356 23.2822 29.2356 15.5822C29.2356 7.75094 22.8356 1.69469 15.3106 1.83844C8.04813 1.96969 1.94813 7.90719 1.89813 15.6009Z" fill="#372020"/>
<path d="M12.3106 26.5448C12.3106 22.8635 12.3106 19.2135 12.3106 15.526C11.4981 15.526 10.7106 15.526 9.90439 15.526C9.90439 14.276 9.90439 13.0635 9.90439 11.8135C10.0106 11.8073 10.1169 11.7948 10.2294 11.7948C10.8106 11.7948 11.3981 11.7823 11.9794 11.801C12.2356 11.8073 12.3231 11.7385 12.3169 11.476C12.3044 10.526 12.3044 9.58228 12.3106 8.63228C12.3169 7.56353 12.6169 6.59478 13.3794 5.81978C14.1169 5.06978 15.0606 4.66353 16.0856 4.60103C17.7356 4.50728 19.3919 4.51978 21.0481 4.48853C21.0669 4.48853 21.0856 4.50728 21.1231 4.52603C21.1231 5.78228 21.1231 7.04478 21.1231 8.33853C21.0044 8.34478 20.8919 8.35103 20.7856 8.35103C20.0356 8.35103 19.2856 8.35103 18.5356 8.35103C17.7794 8.35728 17.3356 8.80728 17.3356 9.55103C17.3356 10.2573 17.3356 10.9698 17.3419 11.676C17.3419 11.6948 17.3544 11.7135 17.3731 11.7823C18.6106 11.7823 19.8606 11.7823 21.1731 11.7823C21.0106 13.051 20.8606 14.2635 20.6981 15.5198C19.5669 15.5198 18.4606 15.5198 17.3231 15.5198C17.3231 19.2198 17.3231 22.8823 17.3231 26.5573C15.6419 26.5448 14.0044 26.5448 12.3106 26.5448Z" fill="#372020"/>
</svg>
