<svg width="32" height="18" viewBox="0 0 32 18" fill="none" xmlns="http://www.w3.org/2000/svg">
<g clip-path="url(#clip0_37_186)">
<path d="M29.7436 0H2.25641C1.01223 0 0 0.886455 0 1.97605V16.024C0 17.1135 1.01223 18 2.25641 18H29.7436C30.9877 18 32 17.1135 32 16.024V1.97605C32 0.886455 30.9877 0 29.7436 0Z" fill="white"/>
<path d="M13.6962 14.4627L2.00533 14.4665V14.4413C2.00533 14.4274 2.02398 14.3376 2.04675 14.2416C2.06955 14.1456 2.10497 13.9929 2.12553 13.9023C2.14601 13.8117 2.1811 13.6577 2.20342 13.5601C2.22578 13.4626 2.26295 13.3 2.286 13.1989C2.30901 13.0979 2.34508 12.9382 2.36618 12.8441C2.38727 12.75 2.4224 12.596 2.44435 12.5019C2.46626 12.4078 2.50368 12.2453 2.52746 12.1407C2.55121 12.0362 2.58732 11.8765 2.60772 11.7858C2.62812 11.6952 2.66051 11.5555 2.67973 11.4754C2.69891 11.3952 2.72343 11.2868 2.73412 11.2345C2.74485 11.1823 2.77957 11.0283 2.81127 10.8924C2.84298 10.7565 2.8779 10.6025 2.889 10.5502C2.90006 10.4979 2.93519 10.3439 2.96709 10.208C2.99896 10.0721 3.03396 9.9181 3.0449 9.86581C3.05583 9.81355 3.09104 9.65954 3.12311 9.52363C3.15527 9.38768 3.18995 9.23657 3.20015 9.18778C3.21043 9.13899 3.2385 9.01353 3.26257 8.90897C3.2866 8.80442 3.33214 8.60766 3.36372 8.47175C3.39534 8.3358 3.44936 8.09913 3.48375 7.94575C3.51823 7.7924 3.5594 7.60993 3.57527 7.54024C3.5911 7.47055 3.61978 7.34505 3.639 7.2614C3.65822 7.17775 3.69306 7.02663 3.71648 6.92558C3.7399 6.82446 3.77797 6.65909 3.8011 6.55801C3.82428 6.45696 3.85994 6.30011 3.88038 6.20951C3.90082 6.11888 3.9357 5.96777 3.9579 5.87366C3.9801 5.77956 4.01829 5.61415 4.04277 5.50612C4.06725 5.39806 4.10825 5.23269 4.13387 5.13859C4.1595 5.04448 4.19573 4.93043 4.21442 4.88515C4.23306 4.83979 4.28459 4.74163 4.3289 4.66686L4.40948 4.53102L4.48272 4.44507C4.52295 4.39785 4.59488 4.32319 4.6425 4.27919C4.69011 4.23519 4.77041 4.16897 4.82104 4.13205C4.8716 4.09511 4.94483 4.04526 4.98372 4.02129C5.02264 3.99731 5.09906 3.95532 5.15353 3.92799C5.208 3.90065 5.28446 3.86487 5.32334 3.84846C5.36227 3.83205 5.44187 3.80205 5.50021 3.78184C5.55856 3.76167 5.66999 3.72779 5.74779 3.70663C5.8256 3.68543 5.97171 3.65349 6.07245 3.6357C6.17318 3.61786 6.33231 3.59403 6.42619 3.58274L6.59678 3.5622L18.2947 3.55826L29.9925 3.5542V3.57942C29.9925 3.59327 29.9738 3.68313 29.9509 3.7791C29.9279 3.87507 29.8896 4.03916 29.8657 4.14371C29.8417 4.24827 29.8069 4.39942 29.7881 4.47956C29.7694 4.55975 29.7339 4.71371 29.7093 4.82174C29.6846 4.9298 29.6467 5.09521 29.6251 5.18928C29.6034 5.28338 29.5683 5.43738 29.5471 5.53145C29.5259 5.62559 29.4905 5.77956 29.4686 5.87366C29.4466 5.96777 29.4127 6.11607 29.393 6.20319C29.3733 6.29031 29.3378 6.44713 29.314 6.55169C29.2902 6.65624 29.252 6.82165 29.229 6.91922C29.2061 7.0168 29.1712 7.16795 29.1514 7.25508C29.1316 7.3422 29.0961 7.49902 29.0724 7.60357C29.0486 7.70813 29.0105 7.87353 28.9875 7.97115C28.9646 8.06872 28.9304 8.21699 28.9116 8.30064C28.8928 8.38426 28.8573 8.54111 28.8329 8.64914C28.8083 8.75716 28.7727 8.91402 28.7535 8.99771C28.7344 9.08132 28.7002 9.22962 28.6776 9.32716C28.6549 9.42478 28.6162 9.59303 28.5916 9.70106C28.5669 9.80912 28.5316 9.96305 28.5131 10.0433C28.4946 10.1234 28.4601 10.2745 28.4362 10.379C28.4124 10.4837 28.3746 10.649 28.3521 10.7466C28.3296 10.8442 28.2943 10.9982 28.2737 11.0888C28.2531 11.1794 28.2172 11.3363 28.1941 11.4373C28.1709 11.5384 28.133 11.7038 28.1099 11.8048C28.0868 11.9059 28.0522 12.0571 28.033 12.1407C28.0138 12.2243 27.9787 12.3783 27.955 12.4829C27.9313 12.5874 27.8927 12.7522 27.8693 12.849L27.8267 13.0251L27.7759 13.1468C27.748 13.2138 27.7061 13.3029 27.6826 13.3447C27.6593 13.3865 27.6117 13.4603 27.5769 13.5087C27.542 13.557 27.4935 13.619 27.469 13.6464C27.4445 13.6737 27.3708 13.7444 27.3051 13.8035L27.1858 13.9107L27.071 13.9838C27.0078 14.024 26.9398 14.0649 26.9198 14.0747C26.8998 14.0844 26.8237 14.1192 26.7507 14.152C26.6777 14.1847 26.5745 14.2264 26.5215 14.2446C26.4685 14.2628 26.3634 14.2938 26.2881 14.3134C26.2127 14.3331 26.1319 14.3524 26.1086 14.3564C26.0852 14.3604 26.0042 14.3754 25.9285 14.3898C25.8528 14.4042 25.7 14.4256 25.5889 14.4375L25.387 14.459L13.6962 14.4627ZM9.53677 11.7542H9.84098L9.84955 11.7341C9.85432 11.7231 9.85816 11.6972 9.85816 11.6765C9.85816 11.6558 9.86819 11.5808 9.88047 11.5097C9.89271 11.4385 9.92144 11.2748 9.94437 11.1458C9.96726 11.0169 10.0015 10.823 10.0205 10.7149C10.0396 10.6069 10.0628 10.4686 10.0722 10.4076C10.0815 10.3466 10.0929 10.2967 10.0975 10.2967C10.1021 10.2967 10.1217 10.3236 10.1412 10.3566L10.1765 10.4165L10.2549 10.4873L10.3334 10.558L10.4299 10.5927L10.5265 10.6273L10.6416 10.6407L10.7567 10.654L10.9027 10.646L11.0488 10.638L11.2069 10.6013L11.3651 10.5646L11.45 10.53C11.4967 10.5109 11.5794 10.4692 11.6339 10.4374L11.733 10.3797L11.8253 10.297C11.8761 10.2516 11.9477 10.1786 11.9845 10.135C12.0213 10.0913 12.0513 10.0524 12.0513 10.0486C12.0513 10.0447 12.0694 10.0177 12.0915 9.98849C12.1135 9.95936 12.1587 9.87845 12.1918 9.80876C12.225 9.73907 12.2767 9.61361 12.3069 9.52995L12.3617 9.37785L12.3901 9.24614C12.4057 9.17371 12.4258 9.05395 12.4347 8.97998L12.4509 8.8456L12.4415 8.73155L12.4322 8.61749L12.4026 8.50339L12.3731 8.38933L12.3253 8.30397L12.2775 8.21856L12.1852 8.13089L12.0929 8.04321L11.9837 7.99267L11.8745 7.94213L11.7542 7.91629L11.6339 7.89053L11.5136 7.88263L11.3934 7.87474L11.2594 7.88852L11.1254 7.90229L11.0161 7.92733L10.9067 7.95229L10.8117 7.99172C10.7595 8.01332 10.6834 8.05012 10.6428 8.07344C10.6021 8.09675 10.5601 8.12354 10.5495 8.13301C10.539 8.14247 10.5135 8.16005 10.4931 8.17196L10.456 8.19378L10.4819 8.08243C10.4962 8.02121 10.5082 7.96402 10.5085 7.95525L10.5091 7.93942H10.2496H9.99023L9.94478 8.19608C9.91972 8.33726 9.88023 8.55536 9.85697 8.68086C9.83372 8.80632 9.79859 8.99449 9.779 9.09905C9.75942 9.2036 9.72445 9.38896 9.70128 9.51095C9.67814 9.6329 9.63991 9.82685 9.61629 9.94186C9.59266 10.0569 9.55811 10.2251 9.53942 10.3158C9.52077 10.4063 9.4856 10.5774 9.46137 10.6959C9.43713 10.8145 9.39813 11.0026 9.37471 11.1142C9.35129 11.2257 9.31322 11.4025 9.29009 11.507C9.26691 11.6116 9.24455 11.71 9.24027 11.7256L9.23256 11.7542H9.53677ZM10.8465 10.2889L10.7284 10.2952L10.6512 10.283L10.5739 10.2708L10.4955 10.2387L10.417 10.2067L10.3623 10.1598L10.3075 10.113L10.2759 10.0496C10.2585 10.0147 10.2361 9.95552 10.2262 9.91799L10.2082 9.8498L10.2154 9.74056L10.2227 9.63137L10.2591 9.46026C10.2791 9.36616 10.3151 9.18935 10.3391 9.0674C10.363 8.94541 10.3993 8.76663 10.4197 8.67019L10.4567 8.49477L10.5378 8.43432C10.5825 8.4011 10.6531 8.35652 10.6949 8.33532L10.7708 8.29673L10.8698 8.26928L10.9689 8.2418L11.0962 8.23511L11.2236 8.22843L11.3273 8.24823L11.4309 8.268L11.5041 8.29819L11.5773 8.32838L11.6387 8.38363L11.7001 8.43889L11.7331 8.4974C11.7514 8.5296 11.7769 8.59256 11.79 8.63737L11.8137 8.71883L11.8064 8.95966L11.7991 9.20046L11.7628 9.3428C11.7428 9.42108 11.7048 9.54084 11.6783 9.60893L11.6301 9.73274L11.571 9.83295C11.5385 9.8881 11.4885 9.96258 11.4598 9.9985C11.431 10.0344 11.3852 10.081 11.358 10.1019C11.3308 10.1229 11.2851 10.1556 11.2566 10.1747L11.2047 10.2094L11.0847 10.2459L10.9646 10.2825L10.8465 10.2889ZM13.7846 10.6373L13.9402 10.6389L14.0959 10.6262C14.1815 10.6192 14.3216 10.6046 14.4071 10.5938C14.4928 10.583 14.6406 10.5588 14.7358 10.5401L14.9087 10.506L14.9174 10.4488C14.9221 10.4175 14.9415 10.324 14.9606 10.2411L14.9951 10.0903L14.9874 10.0835L14.9799 10.0767L14.927 10.0996C14.8979 10.1122 14.8073 10.1422 14.7257 10.1663L14.5772 10.2101L14.4214 10.2371L14.2657 10.2641L14.0181 10.2646L13.7704 10.265L13.6855 10.2407C13.6388 10.2274 13.5702 10.203 13.5329 10.1864L13.4652 10.1564L13.4093 10.1112L13.3534 10.0659L13.3098 9.9977L13.2662 9.92939L13.2389 9.8438L13.2115 9.75818L13.2114 9.59972L13.2112 9.44122L13.2354 9.2999L13.2597 9.15851L13.4726 9.14959L13.6855 9.14067L14.4726 9.14524L15.2597 9.14973L15.2834 9.05947C15.2965 9.0098 15.3165 8.90715 15.3278 8.83135L15.3485 8.6935L15.3489 8.57758L15.3494 8.46162L15.327 8.37505L15.3045 8.28851L15.2675 8.2312C15.2471 8.1997 15.2112 8.15402 15.1877 8.12968C15.1642 8.10538 15.1222 8.0711 15.0944 8.05352C15.0666 8.03594 15.012 8.00638 14.9731 7.98785L14.9024 7.95415L14.7788 7.92747L14.6552 7.90083L14.5029 7.88779L14.3505 7.87474L14.2091 7.883L14.0676 7.89122L13.8978 7.92042L13.728 7.94966L13.6218 7.98763C13.5635 8.0085 13.4743 8.04665 13.4238 8.07234C13.3732 8.09803 13.3032 8.13984 13.2682 8.16524C13.2331 8.19067 13.1725 8.24008 13.1334 8.27506C13.0943 8.31007 13.0365 8.37285 13.0049 8.4147C12.9733 8.45654 12.925 8.53066 12.8973 8.57944C12.8698 8.62827 12.8338 8.69668 12.8174 8.73155C12.8011 8.76637 12.7714 8.83767 12.7514 8.88993C12.7314 8.94223 12.7001 9.04204 12.6817 9.11176C12.6633 9.18146 12.6381 9.29617 12.6257 9.3667L12.6031 9.49498L12.6034 9.68355L12.6036 9.87213L12.6251 9.95454C12.6369 9.99982 12.6595 10.0683 12.6753 10.1066C12.6911 10.1449 12.7204 10.202 12.7403 10.2333C12.7602 10.2647 12.8028 10.3152 12.8349 10.3456C12.8669 10.3759 12.925 10.422 12.964 10.4479C13.0028 10.4739 13.0721 10.5104 13.1179 10.529L13.2011 10.5629L13.3171 10.5881C13.3808 10.6019 13.4771 10.6182 13.531 10.6244C13.5849 10.6306 13.699 10.6364 13.7846 10.6373ZM14.0511 8.85193C13.6594 8.85193 13.3389 8.84944 13.3389 8.84633C13.3389 8.8433 13.3556 8.79908 13.376 8.7481C13.3964 8.69716 13.4324 8.62136 13.4557 8.57963L13.4984 8.50372L13.5919 8.42036L13.6855 8.33693L13.7775 8.29757C13.8281 8.2759 13.895 8.25229 13.926 8.24513C13.9572 8.23796 14.0463 8.22846 14.1241 8.22404L14.2657 8.21589L14.3744 8.22843L14.483 8.24092L14.5619 8.2733L14.6409 8.30568L14.6842 8.34753C14.708 8.37051 14.7364 8.40439 14.7473 8.42277L14.7671 8.45625L14.7801 8.53051L14.7932 8.60477L14.7783 8.72833L14.7633 8.85193H14.0511ZM18.2841 10.6374L18.4399 10.6389L18.6166 10.6201C18.7139 10.6098 18.8433 10.5927 18.9043 10.5821C18.9652 10.5715 19.0639 10.5505 19.1236 10.5355C19.1832 10.5203 19.2372 10.504 19.2435 10.4992C19.2499 10.4943 19.2667 10.4368 19.281 10.3713C19.2953 10.3059 19.3133 10.2181 19.321 10.1763C19.3287 10.1345 19.3327 10.0981 19.3299 10.0953C19.327 10.0926 19.3166 10.0961 19.3067 10.1031C19.2967 10.1102 19.2273 10.1364 19.1524 10.1613L19.0162 10.2066L18.8222 10.2403L18.6281 10.2739L18.4632 10.2689L18.2982 10.2639L18.2045 10.2348L18.1108 10.2056L18.0384 10.149L17.966 10.0922L17.918 10.0139L17.87 9.93553L17.8471 9.83069L17.8242 9.72587L17.8244 9.58992L17.8245 9.45394L17.8523 9.28919L17.8801 9.12441L17.9095 9.03568C17.9257 8.98689 17.944 8.92988 17.9502 8.90897C17.9564 8.88803 17.9823 8.82817 18.0078 8.77588C18.0333 8.72362 18.0789 8.64281 18.109 8.59633L18.1637 8.51187L18.231 8.44942L18.2983 8.38696L18.3695 8.34742L18.4408 8.30784L18.5323 8.28259C18.5826 8.2687 18.6715 8.25068 18.7299 8.24257L18.836 8.22773L18.9916 8.23475L19.1473 8.24173L19.3312 8.27473L19.5152 8.30766L19.5899 8.33265C19.6311 8.34639 19.6665 8.35769 19.6688 8.35769C19.6709 8.35769 19.6808 8.31062 19.6907 8.25309C19.7006 8.19561 19.7181 8.10099 19.7297 8.04288C19.7413 7.9847 19.748 7.93464 19.7445 7.9316C19.7412 7.92853 19.6859 7.92068 19.6217 7.91414C19.5575 7.90759 19.3832 7.89597 19.2342 7.88826L18.9633 7.87434L18.7723 7.88746L18.5813 7.90061L18.4398 7.92722L18.2983 7.95386L18.2072 7.9865C18.1571 8.00444 18.0837 8.03686 18.044 8.05849C18.0044 8.08016 17.9541 8.10925 17.932 8.12318C17.91 8.13714 17.8433 8.19151 17.7836 8.24407L17.6753 8.3396L17.6147 8.41897C17.5815 8.46265 17.5239 8.55364 17.4869 8.62129L17.4195 8.74423L17.3678 8.87725C17.3394 8.95045 17.2997 9.07021 17.2796 9.14341L17.2431 9.27651L17.2299 9.39689L17.2166 9.51731L17.2168 9.67573L17.2169 9.83412L17.2303 9.92629L17.2436 10.0185L17.286 10.1133L17.3283 10.2081L17.3774 10.2766L17.4263 10.3451L17.5041 10.4137L17.582 10.4823L17.6643 10.5214L17.7466 10.5603L17.8548 10.5872C17.9142 10.602 18.0002 10.619 18.0458 10.625C18.0914 10.6309 18.1987 10.6365 18.2844 10.6374H18.2841ZM20.6116 10.6327L20.8026 10.6277L20.9229 10.6002L21.0431 10.5726L21.121 10.5397C21.1638 10.5216 21.2338 10.4858 21.2766 10.4602C21.3194 10.4346 21.3857 10.3859 21.4239 10.352C21.462 10.3181 21.5186 10.2603 21.5496 10.2235C21.5806 10.1867 21.6079 10.1583 21.6102 10.1604C21.6125 10.1624 21.6053 10.221 21.5943 10.2906C21.5833 10.3602 21.5742 10.4528 21.574 10.4963L21.5738 10.5755H21.8334H22.0931L22.1011 10.3949L22.109 10.2143L22.146 9.97986C22.1664 9.85089 22.1994 9.65984 22.2192 9.55532C22.2391 9.45076 22.2735 9.27399 22.2959 9.16242C22.3182 9.05088 22.3536 8.87696 22.3744 8.77588L22.4125 8.59213L22.4138 8.43341L22.415 8.27466L22.375 8.20131L22.3349 8.12793L22.2806 8.08122L22.2262 8.03448L22.137 7.99402L22.0478 7.95349L21.9148 7.927L21.7818 7.9005L21.5988 7.88804L21.4157 7.87558L21.18 7.88866C21.0502 7.89583 20.8677 7.91001 20.7743 7.9202L20.6045 7.93862L20.4888 7.93902L20.3731 7.93942L20.3563 8.01233C20.347 8.05239 20.3213 8.14759 20.2991 8.22393C20.2769 8.30024 20.2608 8.36448 20.2633 8.36675C20.2658 8.36902 20.3277 8.35641 20.4008 8.33879C20.4739 8.32114 20.6293 8.2922 20.7461 8.27436L20.9583 8.24198L21.1493 8.23497L21.3403 8.22788L21.4634 8.24721L21.5864 8.26654L21.6685 8.30283L21.7506 8.33916L21.7966 8.40055L21.8426 8.46191L21.842 8.55869L21.8413 8.65549L21.8169 8.7617L21.7925 8.86793L21.2834 8.86958L20.7743 8.87119L20.6077 8.91212C20.5161 8.93463 20.4146 8.96452 20.3822 8.97852C20.3498 8.99255 20.3174 9.00403 20.3102 9.00403C20.303 9.00403 20.2485 9.03107 20.1891 9.06422L20.081 9.12434L19.996 9.20042C19.9491 9.24227 19.8893 9.30502 19.8631 9.33988C19.8368 9.37471 19.7941 9.44751 19.7682 9.50167L19.7211 9.60008L19.6995 9.71074L19.6779 9.82144V9.93754V10.0537L19.6985 10.1504L19.7192 10.247L19.7574 10.3101C19.7785 10.3447 19.8172 10.3956 19.8434 10.423L19.8911 10.4728L19.9756 10.5189L20.0603 10.5649L20.1572 10.5894C20.2104 10.6029 20.2915 10.6193 20.3374 10.6258L20.4207 10.6376L20.6117 10.6327H20.6116ZM20.7885 10.2783L20.6752 10.2836L20.6003 10.2665C20.5591 10.2571 20.4965 10.2361 20.4612 10.2199L20.3972 10.1904L20.3622 10.1531C20.343 10.1326 20.3136 10.0924 20.2969 10.0637L20.2666 10.0115L20.2607 9.88974L20.2547 9.7679L20.2787 9.69401C20.2919 9.65337 20.3228 9.5828 20.3475 9.53726L20.3923 9.45441L20.4781 9.37814L20.5639 9.30184L20.6549 9.26255L20.746 9.2233L20.8592 9.19918L20.9724 9.1751H21.3261H21.6799L21.7022 9.18339L21.7246 9.19165L21.7058 9.29113C21.6954 9.3458 21.6707 9.44473 21.6509 9.51095C21.631 9.57721 21.596 9.67453 21.5731 9.72726C21.5501 9.78003 21.5313 9.82666 21.5313 9.8309C21.5313 9.83518 21.508 9.87359 21.4796 9.91631L21.4279 9.99404L21.3431 10.0694C21.2965 10.1107 21.2531 10.1446 21.2468 10.1446C21.2406 10.1446 21.212 10.1589 21.1833 10.1763L21.1312 10.208L21.0164 10.2405L20.9016 10.273L20.7885 10.2783ZM25.394 10.6372L25.5284 10.6387L25.6558 10.6202C25.7259 10.61 25.815 10.5936 25.8539 10.5837C25.8928 10.5739 25.9629 10.5483 26.0095 10.5269L26.0945 10.4879L26.1675 10.4303L26.2405 10.3727L26.3174 10.2809C26.3597 10.2303 26.398 10.1805 26.4025 10.17L26.4107 10.1509L26.4036 10.2143C26.3997 10.2492 26.3909 10.3062 26.384 10.3411C26.3772 10.3759 26.3674 10.4429 26.3623 10.49L26.3529 10.5755H26.6305H26.908V10.49V10.4044L26.9503 10.0812C26.9736 9.90348 27.008 9.66685 27.0267 9.55532C27.0455 9.44374 27.0745 9.28411 27.0912 9.20046C27.1078 9.11681 27.1373 8.96566 27.1566 8.86461C27.176 8.76356 27.2111 8.58672 27.2345 8.47175C27.2579 8.3567 27.2953 8.17423 27.3177 8.0662C27.3401 7.95814 27.375 7.78988 27.3951 7.69231C27.4152 7.59473 27.4513 7.42362 27.4752 7.31212C27.4992 7.20059 27.5342 7.04373 27.553 6.96355C27.5718 6.88345 27.5872 6.81353 27.5872 6.80835V6.79881H27.2843H26.9815L26.9726 6.87804C26.9677 6.9216 26.9445 7.06559 26.9211 7.19807C26.8977 7.33047 26.8595 7.54148 26.8362 7.66694C26.813 7.7924 26.7906 7.9141 26.7865 7.93734L26.7789 7.97959L26.755 7.97049C26.7419 7.96548 26.6706 7.94776 26.5967 7.93113L26.4623 7.90091L26.2784 7.88808L26.0944 7.87525L25.9388 7.88822L25.7831 7.90124L25.6417 7.93329L25.5002 7.9653L25.3658 8.02403L25.2313 8.08276L25.1323 8.14839L25.0332 8.21406L24.9477 8.29625C24.9006 8.34142 24.8327 8.41616 24.7966 8.46232L24.7312 8.54622L24.6542 8.68956C24.612 8.76842 24.5605 8.87283 24.5399 8.92162C24.5192 8.97044 24.4829 9.07858 24.459 9.16198L24.4157 9.31364L24.3944 9.51055L24.3731 9.70738L24.3891 9.86581L24.4051 10.0242L24.424 10.0812C24.4345 10.1126 24.4564 10.1685 24.4729 10.2054L24.5027 10.2726L24.5572 10.3386L24.6117 10.4047L24.6739 10.4503L24.7361 10.496L24.821 10.5337C24.8677 10.5545 24.946 10.5813 24.995 10.5933C25.044 10.6054 25.1236 10.6198 25.1719 10.6254C25.2201 10.6311 25.3201 10.6364 25.394 10.6372ZM25.6353 10.2777L25.5284 10.2827L25.4564 10.2711C25.4167 10.2647 25.3533 10.2475 25.3153 10.233L25.2464 10.2066L25.1884 10.1639L25.1304 10.1214L25.0873 10.0475L25.0442 9.97354L25.0245 9.89117L25.005 9.80876L25.0066 9.64401L25.0083 9.47926L25.0311 9.33349L25.0539 9.18778L25.0893 9.0864C25.1088 9.03063 25.1249 8.97801 25.125 8.96946C25.1252 8.96094 25.1443 8.91533 25.1678 8.86812C25.1912 8.82086 25.2303 8.74803 25.2547 8.70618C25.2791 8.66434 25.3247 8.59918 25.356 8.56132C25.3874 8.52346 25.4432 8.46641 25.4801 8.43454C25.517 8.40275 25.5756 8.36094 25.6105 8.34175L25.6738 8.30685L25.7851 8.27235L25.8963 8.23785L26.1298 8.23774H26.3633L26.4977 8.27118C26.5716 8.28953 26.6501 8.31084 26.6721 8.31851L26.7121 8.33243L26.7043 8.36723C26.7001 8.38637 26.6832 8.47047 26.667 8.55408C26.6507 8.63773 26.6187 8.79744 26.5958 8.90897C26.5729 9.02051 26.5377 9.18877 26.5176 9.28283C26.4975 9.37694 26.4684 9.4967 26.4529 9.54896C26.4375 9.60125 26.4156 9.67365 26.4044 9.70987C26.3932 9.74608 26.3665 9.80887 26.3451 9.84929C26.3236 9.88974 26.2861 9.94851 26.2617 9.97986C26.2373 10.0112 26.1961 10.0547 26.1701 10.0764C26.144 10.0982 26.0877 10.1368 26.0449 10.1623L25.9671 10.2086L25.8546 10.2406L25.7421 10.2726L25.6353 10.2777ZM4.81113 10.5755H5.15488L5.17956 10.4393C5.19311 10.3644 5.21963 10.2203 5.23844 10.1193C5.25725 10.0182 5.29229 9.82999 5.31624 9.70106C5.34023 9.57209 5.37622 9.38103 5.39617 9.27651C5.41612 9.17195 5.44787 9.00977 5.46664 8.9161C5.48544 8.82236 5.50442 8.74255 5.50874 8.73864L5.5167 8.73155H6.44112H7.36551L7.37579 8.74072L7.38607 8.74993L7.37 8.82309C7.36122 8.86337 7.33515 8.98751 7.3121 9.09905C7.28905 9.21058 7.25029 9.39879 7.22593 9.51731C7.20165 9.63579 7.16648 9.80404 7.14784 9.89117C7.12915 9.97829 7.09137 10.1608 7.06387 10.2967C7.03641 10.4326 7.01397 10.551 7.01405 10.5597L7.01421 10.5755H7.35939H7.7046L7.71986 10.4963C7.72831 10.4528 7.74177 10.3743 7.74993 10.3221C7.75801 10.2698 7.77764 10.1585 7.79343 10.0749C7.80922 9.9913 7.84076 9.82586 7.86356 9.70738C7.88633 9.5889 7.92452 9.38644 7.94835 9.25747C7.97218 9.1285 8.00751 8.94033 8.02693 8.83928C8.04627 8.73816 8.08083 8.56709 8.10364 8.45906C8.12644 8.351 8.16447 8.16853 8.18814 8.05348C8.2118 7.93851 8.24717 7.76456 8.26684 7.66694C8.28651 7.56937 8.32233 7.39256 8.34648 7.27408C8.37064 7.1556 8.40112 7.01731 8.41421 6.96673L8.43804 6.87486H8.08854H7.739L7.72949 6.93508C7.72431 6.96816 7.70742 7.06087 7.692 7.14102C7.67653 7.2212 7.64854 7.36373 7.62969 7.45783C7.61084 7.55197 7.57641 7.73159 7.55315 7.85709C7.5299 7.98251 7.50027 8.14861 7.4873 8.22616L7.46372 8.36712L6.95064 8.37643L6.43753 8.38572L6.00782 8.37658C5.77146 8.37157 5.57676 8.36642 5.57512 8.36525C5.57353 8.36401 5.58157 8.31478 5.593 8.2558C5.60446 8.19681 5.62608 8.09434 5.6411 8.02816C5.65611 7.96194 5.68459 7.83078 5.70434 7.73663C5.72413 7.64257 5.74649 7.52566 5.75412 7.47687C5.76171 7.42808 5.77766 7.34681 5.78953 7.29623C5.80141 7.24572 5.82393 7.13926 5.8396 7.0597C5.85522 6.98015 5.87191 6.90599 5.87668 6.89496L5.88525 6.87486H5.53857H5.19184L5.16969 6.98577C5.15745 7.04677 5.14117 7.13371 5.1335 7.17903C5.12578 7.22434 5.09996 7.36976 5.07609 7.5022C5.05222 7.63464 5.01697 7.8314 4.99775 7.93942C4.97853 8.04749 4.94361 8.24425 4.92011 8.37665C4.89652 8.50913 4.85772 8.71441 4.83377 8.83289C4.80986 8.95144 4.77522 9.11966 4.75678 9.20678C4.73838 9.29391 4.70333 9.45931 4.67885 9.57432C4.65441 9.68936 4.61863 9.85188 4.59949 9.93553C4.58032 10.0191 4.55914 10.1161 4.55245 10.1509C4.54568 10.1858 4.52381 10.2863 4.50373 10.3743C4.4837 10.4623 4.4673 10.5436 4.4673 10.5549V10.5755H4.81113ZM8.61695 10.5755H8.92129L8.92985 10.5555C8.93463 10.5444 8.93846 10.5155 8.93846 10.4912C8.93846 10.4669 8.95764 10.3405 8.98098 10.2102C9.0044 10.08 9.04304 9.86803 9.06691 9.73907C9.09073 9.61013 9.12594 9.42192 9.14516 9.32084C9.16438 9.21979 9.19849 9.05157 9.22101 8.94694C9.24353 8.84242 9.27813 8.67987 9.29788 8.5858C9.31759 8.4917 9.35643 8.31266 9.38413 8.18793C9.41184 8.0632 9.43795 7.9562 9.44215 7.9501L9.44986 7.93895L9.1421 7.94235L8.83434 7.94575L8.80864 8.11053C8.7946 8.20116 8.76375 8.38082 8.74017 8.50972C8.71663 8.63868 8.68097 8.83548 8.66094 8.94694C8.6409 9.05852 8.60606 9.23814 8.58341 9.3462C8.56077 9.45423 8.52609 9.6196 8.5063 9.7137C8.48655 9.80784 8.4511 9.97321 8.42751 10.0812C8.40393 10.1893 8.37231 10.3319 8.35721 10.3981C8.34208 10.4643 8.32588 10.5313 8.32115 10.547L8.31262 10.5755H8.61695ZM15.7351 10.5755H16.0372L16.0462 10.461C16.0512 10.3981 16.0683 10.2712 16.0842 10.179C16.1001 10.0869 16.1327 9.90319 16.1566 9.77079C16.1805 9.63831 16.2249 9.41787 16.2552 9.28086C16.2857 9.14389 16.32 9.00772 16.3316 8.9783C16.3432 8.94884 16.3527 8.91698 16.3527 8.90744C16.3527 8.89786 16.3754 8.84582 16.4031 8.79177C16.4309 8.73772 16.4826 8.65498 16.5181 8.60788L16.5826 8.52221L16.6689 8.45059L16.7553 8.37903L16.8617 8.33349L16.9682 8.28792L17.1309 8.28873L17.2936 8.28949L17.3736 8.31087C17.4176 8.32264 17.4574 8.33229 17.462 8.33229C17.4667 8.33229 17.4705 8.31884 17.4705 8.30236C17.4705 8.28591 17.4864 8.20244 17.5058 8.11685C17.5253 8.0313 17.5412 7.9577 17.5412 7.95328C17.5412 7.94885 17.4951 7.93266 17.4386 7.91732C17.3822 7.90197 17.3042 7.88589 17.2653 7.88154L17.1946 7.87372L17.1026 7.8883C17.052 7.8963 16.9768 7.91399 16.9355 7.92762C16.8941 7.94122 16.8258 7.97206 16.7837 7.99618C16.7417 8.02034 16.6762 8.06733 16.6383 8.10063C16.6003 8.13396 16.5365 8.20116 16.4965 8.24995C16.4564 8.29874 16.4145 8.35009 16.4034 8.36401L16.3832 8.38933L16.3954 8.33868C16.4022 8.31076 16.4211 8.21951 16.4373 8.13589C16.4535 8.05224 16.4703 7.97378 16.4744 7.96164L16.4819 7.93942H16.2122H15.9423V7.96998C15.9423 7.98679 15.9264 8.08798 15.907 8.19491C15.8875 8.30188 15.8554 8.48059 15.8356 8.59213C15.8159 8.70366 15.7808 8.89757 15.7577 9.02303C15.7346 9.14849 15.6995 9.32815 15.6797 9.42222C15.66 9.51632 15.6249 9.68173 15.6017 9.78979C15.5786 9.89778 15.5401 10.0746 15.5163 10.1827C15.4925 10.2907 15.464 10.4183 15.453 10.4662C15.442 10.5141 15.433 10.5583 15.433 10.5644V10.5755H15.7351ZM22.9062 10.5755H23.2151V10.4909V10.4062L23.2506 10.1962C23.2703 10.0807 23.3025 9.89778 23.3224 9.78979C23.3424 9.68173 23.3671 9.54486 23.3775 9.48559C23.388 9.42635 23.4156 9.29804 23.4389 9.20046C23.4622 9.10285 23.4913 8.99738 23.5036 8.96598C23.5159 8.93463 23.526 8.9017 23.5261 8.89286C23.5263 8.88401 23.5526 8.82708 23.5846 8.76634L23.6429 8.65586L23.7199 8.56431L23.7968 8.4728L23.881 8.41612C23.9272 8.38491 24.0017 8.34358 24.0464 8.32417L24.1277 8.28891L24.3045 8.29L24.4814 8.29114L24.551 8.31113L24.6206 8.33115L24.6324 8.32465L24.6441 8.31814L24.6448 8.27773C24.645 8.25547 24.6602 8.17273 24.6784 8.09379L24.7115 7.95032L24.6743 7.93727C24.6538 7.93011 24.6053 7.91527 24.5663 7.9043L24.4956 7.88431L24.3683 7.88464L24.2409 7.8849L24.1371 7.91764L24.0333 7.95032L23.9554 7.99242L23.8775 8.03452L23.7762 8.12957L23.6748 8.22459L23.6204 8.29834C23.5905 8.3389 23.5642 8.37026 23.5619 8.36803C23.5596 8.36584 23.5759 8.28131 23.598 8.18026C23.6202 8.07917 23.6386 7.98364 23.6389 7.96797L23.6396 7.93942H23.3778H23.116V7.94754C23.116 7.95196 23.103 8.03324 23.087 8.12811C23.0711 8.22302 23.039 8.40615 23.0159 8.53511C22.9927 8.66405 22.9546 8.87221 22.9313 8.99771C22.908 9.12317 22.8728 9.30282 22.8532 9.39693C22.8335 9.491 22.7986 9.6564 22.7756 9.76443C22.7526 9.87249 22.7148 10.0464 22.6917 10.151C22.6685 10.2555 22.6377 10.3938 22.6234 10.4583L22.5973 10.5755H22.9062ZM9.21542 7.48294L9.30126 7.48319L9.36957 7.46236L9.43791 7.44153L9.49833 7.3866L9.5588 7.33171L9.59058 7.25851L9.62245 7.18535L9.62355 7.07761L9.62469 6.96995L9.59642 6.92785L9.5681 6.88579L9.51886 6.85849L9.46957 6.83115H9.3632H9.25683L9.18441 6.8602L9.11199 6.88922L9.06996 6.92957L9.02794 6.96995L8.99489 7.03964L8.96188 7.10933L8.95564 7.21791L8.94944 7.32649L8.98012 7.38046L9.01089 7.4344L9.07021 7.45852L9.12949 7.48261L9.21542 7.48294Z" fill="#B3131B"/>
</g>
<defs>
<clipPath id="clip0_37_186">
<rect width="32" height="18" fill="white"/>
</clipPath>
</defs>
</svg>
