<svg width="32" height="32" viewBox="0 0 32 32" fill="none" xmlns="http://www.w3.org/2000/svg">
<g clip-path="url(#clip0_37_323)">
<path fill-rule="evenodd" clip-rule="evenodd" d="M0 16C0 7.16347 7.16347 0 16 0C24.8365 0 32 7.16347 32 16C32 24.8365 24.8365 32 16 32C7.16347 32 0 24.8365 0 16ZM16.0008 7.46667C13.6833 7.46667 13.3924 7.4768 12.4822 7.5182C11.5737 7.5598 10.9537 7.70367 10.4111 7.91467C9.8498 8.1326 9.37373 8.4242 8.8994 8.89867C8.42473 9.373 8.13313 9.84907 7.91447 10.4101C7.70293 10.9529 7.55893 11.5732 7.51807 12.4813C7.47733 13.3915 7.46667 13.6825 7.46667 16.0001C7.46667 18.3176 7.477 18.6076 7.5182 19.5178C7.56 20.4263 7.7038 21.0463 7.91467 21.5889C8.1328 22.1502 8.42433 22.6263 8.89887 23.1006C9.373 23.5753 9.84907 23.8675 10.41 24.0855C10.9529 24.2965 11.5732 24.4403 12.4815 24.4819C13.3917 24.5234 13.6824 24.5335 15.9997 24.5335C18.3175 24.5335 18.6074 24.5234 19.5177 24.4819C20.4261 24.4403 21.0469 24.2965 21.5899 24.0855C22.1509 23.8675 22.6263 23.5753 23.1004 23.1006C23.5751 22.6263 23.8667 22.1502 24.0853 21.5891C24.2951 21.0463 24.4391 20.4261 24.4818 19.518C24.5227 18.6077 24.5333 18.3176 24.5333 16.0001C24.5333 13.6825 24.5227 13.3917 24.4818 12.4815C24.4391 11.573 24.2951 10.9529 24.0853 10.4103C23.8667 9.84907 23.5751 9.373 23.1004 8.89867C22.6257 8.424 22.1511 8.13247 21.5893 7.91467C21.0453 7.70367 20.4249 7.5598 19.5164 7.5182C18.6061 7.4768 18.3164 7.46667 15.9981 7.46667H16.0008Z" fill="#372020"/>
<path fill-rule="evenodd" clip-rule="evenodd" d="M15.2353 9.00457C15.4625 9.00424 15.716 9.00457 16.0008 9.00457C18.2792 9.00457 18.5493 9.01277 19.449 9.05364C20.281 9.09171 20.7326 9.23071 21.0334 9.34751C21.4316 9.50217 21.7155 9.68704 22.014 9.98571C22.3127 10.2844 22.4976 10.5688 22.6526 10.9671C22.7694 11.2675 22.9086 11.7191 22.9465 12.5511C22.9873 13.4506 22.9963 13.7209 22.9963 15.9982C22.9963 18.2756 22.9873 18.5458 22.9465 19.4454C22.9084 20.2774 22.7694 20.729 22.6526 21.0294C22.4979 21.4276 22.3127 21.7112 22.014 22.0097C21.7153 22.3084 21.4318 22.4932 21.0334 22.6479C20.7329 22.7652 20.281 22.9039 19.449 22.942C18.5495 22.9828 18.2792 22.9917 16.0008 22.9917C13.7222 22.9917 13.4521 22.9828 12.5526 22.942C11.7206 22.9036 11.269 22.7645 10.9681 22.6477C10.5698 22.493 10.2853 22.3082 9.98665 22.0095C9.68799 21.7108 9.50312 21.4271 9.34812 21.0287C9.23132 20.7282 9.09212 20.2767 9.05425 19.4447C9.01332 18.5451 9.00519 18.2749 9.00519 15.9961C9.00519 13.7173 9.01332 13.4485 9.05425 12.549C9.09225 11.717 9.23132 11.2654 9.34812 10.9646C9.50279 10.5664 9.68799 10.2819 9.98665 9.98324C10.2853 9.68457 10.5698 9.49971 10.9681 9.34464C11.2689 9.22731 11.7206 9.08864 12.5526 9.05044C13.3398 9.01491 13.6449 9.00424 15.2353 9.00244V9.00457ZM20.5559 10.4214C19.9905 10.4214 19.5319 10.8796 19.5319 11.4451C19.5319 12.0104 19.9905 12.4691 20.5559 12.4691C21.1212 12.4691 21.5799 12.0104 21.5799 11.4451C21.5799 10.8798 21.1212 10.4214 20.5559 10.4214ZM16.0008 11.6179C13.5807 11.6179 11.6185 13.5801 11.6185 16.0002C11.6185 18.4203 13.5807 20.3816 16.0008 20.3816C18.4209 20.3816 20.3823 18.4203 20.3823 16.0002C20.3823 13.5801 18.4209 11.6179 16.0008 11.6179Z" fill="#372020"/>
<path fill-rule="evenodd" clip-rule="evenodd" d="M16.0008 13.1555C17.5717 13.1555 18.8453 14.429 18.8453 16C18.8453 17.5708 17.5717 18.8445 16.0008 18.8445C14.4297 18.8445 13.1563 17.5708 13.1563 16C13.1563 14.429 14.4297 13.1555 16.0008 13.1555Z" fill="#372020"/>
</g>
<defs>
<clipPath id="clip0_37_323">
<rect width="32" height="32" fill="white"/>
</clipPath>
</defs>
</svg>
