<svg width="36" height="18" viewBox="0 0 36 18" fill="none" xmlns="http://www.w3.org/2000/svg">
<path d="M34.08 0H1.92C0.859613 0 0 0.684405 0 1.52866V16.4713C0 17.3156 0.859613 18 1.92 18H34.08C35.1404 18 36 17.3156 36 16.4713V1.52866C36 0.684405 35.1404 0 34.08 0Z" fill="black"/>
<path d="M20.8324 8.99992C20.8324 12.7888 16.9746 15.86 12.216 15.86C7.4574 15.86 3.6 12.7888 3.6 8.99992C3.6 5.21139 7.4574 2.13989 12.216 2.13989C16.9746 2.13989 20.8324 5.21139 20.8324 8.99992Z" fill="#D9222A"/>
<path d="M23.7836 2.13989C21.5574 2.13989 19.5288 2.81234 17.9996 3.91569C17.6882 4.14053 17.3974 4.38336 17.1296 4.64164H18.8704C19.1084 4.87206 19.3276 5.11441 19.5272 5.36824H16.4728C16.2898 5.60152 16.1236 5.84387 15.9764 6.09467H20.0234C20.1616 6.33002 20.2836 6.57222 20.3882 6.82094H15.6116C15.512 7.05757 15.4282 7.29976 15.3612 7.54738H20.6384C20.765 8.01553 20.8324 8.50152 20.8324 8.99992C20.8324 9.76171 20.6762 10.4947 20.3882 11.1791H15.6116C15.716 11.4279 15.838 11.6703 15.9762 11.9055H20.0234C19.8758 12.1563 19.71 12.3987 19.5268 12.6321H16.4728C16.6722 12.8854 16.8918 13.1281 17.1296 13.358H18.87C18.6026 13.6168 18.3116 13.86 17.9998 14.0846C19.529 15.1878 21.5574 15.86 23.7836 15.86C28.5422 15.86 32.4 12.7888 32.4 8.99992C32.4 5.21155 28.5422 2.13989 23.7836 2.13989Z" fill="#EE9F2D"/>
<path d="M31.2516 12.824C31.2516 12.7017 31.376 12.6023 31.5298 12.6023C31.6836 12.6023 31.808 12.7017 31.808 12.824C31.808 12.9462 31.6836 13.0456 31.5298 13.0456C31.376 13.0456 31.2516 12.9462 31.2516 12.824ZM31.5298 12.9924C31.6466 12.9924 31.7414 12.9169 31.7414 12.824C31.7414 12.7308 31.6466 12.6556 31.5298 12.6556C31.4128 12.6556 31.3184 12.7308 31.3184 12.824C31.3184 12.9169 31.4128 12.9924 31.5298 12.9924ZM31.4922 12.9214H31.4352V12.7267H31.5384C31.56 12.7267 31.582 12.7267 31.601 12.7364C31.6208 12.747 31.632 12.7658 31.632 12.7853C31.632 12.8071 31.6158 12.8275 31.5896 12.8354L31.6346 12.9214H31.5714L31.534 12.8443H31.4922V12.9214ZM31.4922 12.8109H31.5238C31.5356 12.8109 31.548 12.8117 31.5586 12.8071C31.568 12.8023 31.5728 12.7934 31.5728 12.7848C31.5728 12.7773 31.567 12.7687 31.559 12.765C31.549 12.7601 31.5332 12.7612 31.5226 12.7612H31.4922V12.8109Z" fill="black"/>
<path d="M10.2042 9.75106C10.106 9.74199 10.0628 9.7396 9.9954 9.7396C9.4652 9.7396 9.1968 9.88434 9.1968 10.1702C9.1968 10.3464 9.3278 10.4585 9.5322 10.4585C9.9132 10.4585 10.1878 10.1697 10.2042 9.75106ZM10.8844 11.012H10.1094L10.1272 10.7187C9.8908 10.9506 9.5754 11.0608 9.1468 11.0608C8.6398 11.0608 8.2922 10.7455 8.2922 10.2877C8.2922 9.59883 8.8968 9.19692 9.9346 9.19692C10.0406 9.19692 10.1766 9.20457 10.3158 9.21874C10.3448 9.12543 10.3524 9.08546 10.3524 9.0353C10.3524 8.84772 10.1894 8.77781 9.7524 8.77781C9.2948 8.77367 8.9174 8.8646 8.7624 8.9052C8.7722 8.85823 8.892 8.26858 8.892 8.26858C9.3582 8.15982 9.6656 8.1189 10.0116 8.1189C10.8148 8.1189 11.2402 8.406 11.2394 8.94867C11.241 9.09406 11.2108 9.27351 11.1636 9.50934C11.0824 9.91937 10.9082 10.7979 10.8844 11.012Z" fill="black"/>
<path d="M7.9008 11.012H6.9654L7.5012 8.337L6.3048 11.012H5.6674L5.5886 8.35229L5.0254 11.012H4.1498L4.8812 7.53223H6.2262L6.3078 9.48L7.1282 7.53223H8.6242L7.9008 11.012Z" fill="black"/>
<path d="M24.9396 9.75106C24.8418 9.74199 24.7984 9.7396 24.7312 9.7396C24.2012 9.7396 23.9328 9.88434 23.9328 10.1702C23.9328 10.3464 24.0636 10.4585 24.268 10.4585C24.649 10.4585 24.9238 10.1697 24.9396 9.75106ZM25.6204 11.012H24.8454L24.863 10.7187C24.6266 10.9506 24.311 11.0608 23.8828 11.0608C23.3756 11.0608 23.0284 10.7455 23.0284 10.2877C23.0284 9.59883 23.6326 9.19692 24.6706 9.19692C24.7766 9.19692 24.9124 9.20457 25.0514 9.21874C25.0804 9.12543 25.088 9.08546 25.088 9.0353C25.088 8.84772 24.9252 8.77781 24.4882 8.77781C24.0306 8.77367 23.6536 8.8646 23.498 8.9052C23.5078 8.85823 23.628 8.26858 23.628 8.26858C24.0942 8.15982 24.4014 8.1189 24.747 8.1189C25.5506 8.1189 25.976 8.406 25.9752 8.94867C25.9768 9.09406 25.9466 9.27351 25.8994 9.50934C25.8186 9.91937 25.644 10.7979 25.6204 11.012Z" fill="black"/>
<path d="M15.0416 10.9692C14.7856 11.0334 14.586 11.0609 14.3696 11.0609C13.8914 11.0609 13.6304 10.8421 13.6304 10.4393C13.6236 10.3143 13.6992 9.98528 13.7586 9.68496C13.8126 9.42063 14.1642 7.75391 14.1642 7.75391H15.094L14.9854 8.18225H15.547L15.4202 8.86235H14.8566C14.7486 9.40056 14.5948 10.0709 14.593 10.1598C14.593 10.3057 14.6908 10.3694 14.9132 10.3694C15.0198 10.3694 15.1024 10.3608 15.1654 10.3426L15.0416 10.9692Z" fill="black"/>
<path d="M17.8924 10.9461C17.573 11.0238 17.2648 11.0614 16.9382 11.0608C15.8974 11.06 15.3548 10.6272 15.3548 9.79835C15.3548 8.831 16.045 8.1189 16.982 8.1189C17.7486 8.1189 18.2382 8.51762 18.2382 9.14294C18.2382 9.35043 18.2046 9.55297 18.1236 9.83896H16.272C16.2094 10.2495 16.5394 10.4205 17.0802 10.4205C17.413 10.4205 17.7132 10.3659 18.047 10.2423L17.8924 10.9461ZM17.3698 9.26842C17.375 9.2095 17.4684 8.76332 16.9372 8.76332C16.641 8.76332 16.4292 8.9431 16.343 9.26842H17.3698Z" fill="black"/>
<path d="M11.4454 9.0767C11.4454 9.43466 11.6634 9.68148 12.1578 9.86683C12.5366 10.0085 12.5952 10.0506 12.5952 10.1791C12.5952 10.3555 12.4282 10.4351 12.058 10.4351C11.779 10.4351 11.5194 10.4004 11.22 10.3235C11.22 10.3235 11.097 10.9472 11.0914 10.977C11.304 11.014 11.4936 11.0482 12.0648 11.0608C13.0518 11.0608 13.5076 10.7616 13.5076 10.1149C13.5076 9.72606 13.3168 9.49788 12.8482 9.32638C12.456 9.18307 12.411 9.15106 12.411 9.0189C12.411 8.86587 12.5664 8.78785 12.8688 8.78785C13.0524 8.78785 13.3032 8.80345 13.5408 8.83036L13.674 8.17399C13.4318 8.14342 13.0646 8.1189 12.8508 8.1189C11.8044 8.1189 11.4422 8.55409 11.4454 9.0767Z" fill="black"/>
<path d="M22.4416 8.19325C22.7014 8.19325 22.9436 8.24755 23.2774 8.38131L23.4304 7.62605C23.2934 7.58322 22.811 7.33179 22.4024 7.33179C21.7764 7.33179 21.2472 7.57908 20.875 7.9872C20.3322 7.84405 20.109 8.13338 19.8354 8.4216L19.5924 8.46666C19.6108 8.37176 19.6274 8.27749 19.6218 8.18211H18.7628C18.6454 9.0579 18.4374 9.945 18.2746 10.8219L18.2322 11.012H19.168C19.3242 10.2041 19.4098 9.68672 19.4618 9.33656L19.8142 9.18051C19.8668 9.02462 20.0316 8.97191 20.3622 8.97828C20.319 9.163 20.2958 9.35726 20.2958 9.55854C20.2958 10.4843 20.9232 11.0608 21.9302 11.0608C22.1896 11.0608 22.4122 11.0335 22.7568 10.9592L22.9214 10.1659C22.6114 10.2874 22.357 10.3445 22.1266 10.3445C21.5828 10.3445 21.2538 10.0249 21.2538 9.49675C21.2538 8.73051 21.7432 8.19325 22.4416 8.19325Z" fill="black"/>
<path d="M8.17 10.8055H7.2344L7.7706 8.13079L6.5742 10.8055H5.9366L5.8578 8.14608L5.2946 10.8055H4.419L5.1504 7.32617H6.4954L6.5332 9.48015L7.4406 7.32617H8.8934L8.17 10.8055Z" fill="white"/>
<path d="M30.361 7.53223L30.1536 8.53764C29.8978 8.26965 29.623 8.0757 29.2602 8.0757C28.7882 8.0757 28.3586 8.36057 28.0774 8.77984C27.6858 8.71519 27.2808 8.60547 27.2808 8.60547L27.2806 8.60802C27.3122 8.37363 27.3248 8.23063 27.322 8.18207H26.4628C26.3458 9.05786 26.1378 9.94496 25.9752 10.8219L25.9324 11.012H26.868C26.9944 10.3587 27.0912 9.81614 27.1624 9.38589C27.482 9.15595 27.642 8.95532 27.965 8.96869C27.822 9.24401 27.7382 9.56121 27.7382 9.88653C27.7382 10.594 28.1878 11.0607 28.8678 11.0607C29.2106 11.0607 29.4736 10.9666 29.7302 10.7485L29.6864 11.0115H30.5712L31.2836 7.53223H30.361ZM29.1912 10.358C28.8728 10.358 28.712 10.1704 28.712 9.80022C28.712 9.24401 29.013 8.84958 29.4374 8.84958C29.7588 8.84958 29.9328 9.04465 29.9328 9.40404C29.9328 9.96503 29.627 10.358 29.1912 10.358Z" fill="black"/>
<path d="M10.4732 9.54492C10.3752 9.53585 10.3318 9.53346 10.2646 9.53346C9.7344 9.53346 9.4662 9.6782 9.4662 9.96403C9.4662 10.14 9.5972 10.2524 9.8012 10.2524C10.1826 10.2524 10.4572 9.96355 10.4732 9.54492ZM11.1538 10.8054H10.3788L10.3964 10.5126C10.1602 10.744 9.8444 10.8546 9.4162 10.8546C8.909 10.8546 8.5616 10.5393 8.5616 10.0815C8.5616 9.39237 9.166 8.99078 10.204 8.99078C10.31 8.99078 10.446 8.99843 10.585 9.0126C10.614 8.91929 10.6216 8.87932 10.6216 8.82884C10.6216 8.64126 10.4588 8.57167 10.0218 8.57167C9.564 8.56753 9.1868 8.65846 9.0316 8.69858C9.0414 8.65177 9.1612 8.06276 9.1612 8.06276C9.6272 7.95352 9.935 7.9126 10.2806 7.9126C11.084 7.9126 11.5096 8.19986 11.5088 8.74206C11.5102 8.88808 11.4798 9.06737 11.4328 9.30288C11.3518 9.71276 11.1774 10.5917 11.1538 10.8054Z" fill="white"/>
<path d="M23.6998 7.41975L23.5466 8.17516C23.213 8.04156 22.9706 7.9871 22.711 7.9871C22.0126 7.9871 21.523 8.52436 21.523 9.29061C21.523 9.81879 21.8522 10.1382 22.3958 10.1382C22.6262 10.1382 22.8804 10.0812 23.1904 9.95956L23.0262 10.7525C22.6814 10.8274 22.459 10.8546 22.1994 10.8546C21.1926 10.8546 20.565 10.2782 20.565 9.35239C20.565 8.10844 21.4318 7.23901 22.6716 7.23901C23.08 7.23901 23.5626 7.37691 23.6998 7.41975Z" fill="white"/>
<path d="M25.209 9.54492C25.111 9.53585 25.0678 9.53346 25.0004 9.53346C24.4704 9.53346 24.202 9.6782 24.202 9.96403C24.202 10.14 24.333 10.2524 24.5372 10.2524C24.9182 10.2524 25.193 9.96355 25.209 9.54492ZM25.8896 10.8054H25.1144L25.1322 10.5126C24.8958 10.744 24.5802 10.8546 24.152 10.8546C23.645 10.8546 23.2974 10.5393 23.2974 10.0815C23.2974 9.39237 23.902 8.99078 24.9396 8.99078C25.0458 8.99078 25.1816 8.99843 25.3208 9.0126C25.3496 8.91929 25.3574 8.87932 25.3574 8.82884C25.3574 8.64126 25.1946 8.57167 24.7576 8.57167C24.3 8.56753 23.9226 8.65846 23.7674 8.69858C23.7772 8.65177 23.8972 8.06276 23.8972 8.06276C24.3632 7.95352 24.6708 7.9126 25.0164 7.9126C25.82 7.9126 26.2454 8.19986 26.2444 8.74206C26.246 8.88808 26.2158 9.06737 26.1686 9.30288C26.0878 9.71276 25.913 10.5917 25.8896 10.8054Z" fill="white"/>
<path d="M15.3108 10.7625C15.0546 10.8267 14.855 10.8545 14.6388 10.8545C14.1606 10.8545 13.8996 10.6357 13.8996 10.2329C13.893 10.1076 13.9686 9.77889 14.028 9.47857C14.0818 9.21392 14.4334 7.54736 14.4334 7.54736H15.363L15.2546 7.97587H15.7318L15.6048 8.65564H15.126C15.018 9.19418 14.8638 9.86408 14.8622 9.9531C14.8622 10.0994 14.9602 10.1626 15.1824 10.1626C15.289 10.1626 15.3714 10.1544 15.4346 10.1362L15.3108 10.7625Z" fill="white"/>
<path d="M18.1616 10.74C17.8424 10.8177 17.5338 10.8551 17.2074 10.8546C16.1666 10.8538 15.624 10.421 15.624 9.59222C15.624 8.62454 16.3142 7.9126 17.2512 7.9126C18.0178 7.9126 18.5074 8.31116 18.5074 8.9368C18.5074 9.14444 18.4738 9.34699 18.393 9.63282H16.5414C16.4788 10.0433 16.8088 10.2145 17.3496 10.2145C17.6822 10.2145 17.9826 10.1597 18.3162 10.0358L18.1616 10.74ZM17.6388 9.0618C17.6444 9.00304 17.7376 8.55671 17.2062 8.55671C16.9102 8.55671 16.6984 8.73696 16.6122 9.0618H17.6388Z" fill="white"/>
<path d="M11.7146 8.87056C11.7146 9.22852 11.9326 9.47502 12.427 9.66069C12.8058 9.80241 12.8644 9.8446 12.8644 9.97295C12.8644 10.1494 12.6972 10.229 12.3274 10.229C12.0482 10.229 11.7886 10.1943 11.489 10.1174C11.489 10.1174 11.3664 10.7411 11.3608 10.7709C11.573 10.8078 11.7628 10.8416 12.334 10.8546C13.3212 10.8546 13.7768 10.5554 13.7768 9.90893C13.7768 9.51992 13.5862 9.29174 13.1174 9.12024C12.7254 8.97661 12.68 8.94508 12.68 8.81276C12.68 8.65989 12.8358 8.58123 13.138 8.58123C13.3214 8.58123 13.5722 8.59731 13.8102 8.62422L13.9432 7.96769C13.7012 7.93712 13.334 7.9126 13.1202 7.9126C12.0736 7.9126 11.7116 8.34747 11.7146 8.87056Z" fill="white"/>
<path d="M30.8404 10.8055H29.9554L29.9994 10.5421C29.7428 10.7606 29.4798 10.8547 29.137 10.8547C28.457 10.8547 28.0076 10.388 28.0076 9.68047C28.0076 8.73923 28.7046 7.94576 29.5296 7.94576C29.8924 7.94576 30.167 8.06375 30.4226 8.33159L30.6302 7.32617H31.5528L30.8404 10.8055ZM29.4606 10.1516C29.8962 10.1516 30.2022 9.75866 30.2022 9.19799C30.2022 8.83859 30.028 8.64353 29.7066 8.64353C29.2824 8.64353 28.981 9.0378 28.981 9.59417C28.981 9.96439 29.1422 10.1516 29.4606 10.1516Z" fill="white"/>
<path d="M26.7322 7.97584C26.615 8.85164 26.407 9.73874 26.2444 10.6152L26.2016 10.8053H27.1372C27.4718 9.07505 27.5528 8.73715 28.0774 8.7795C28.161 8.42536 28.3166 8.11517 28.4326 7.95864C28.0408 7.89368 27.822 8.06995 27.5356 8.40482C27.5582 8.26008 27.5996 8.11947 27.5914 7.97584H26.7322Z" fill="white"/>
<path d="M19.032 7.97584C18.9146 8.85164 18.7066 9.73874 18.544 10.6152L18.5014 10.8053H19.4374C19.7716 9.07505 19.8524 8.73715 20.3768 8.7795C20.4608 8.42536 20.6164 8.11517 20.732 7.95864C20.3406 7.89368 20.1216 8.06995 19.8354 8.40482C19.858 8.26008 19.899 8.11947 19.8912 7.97584H19.032Z" fill="white"/>
<path d="M31.2512 10.584C31.2512 10.4612 31.3758 10.3623 31.5294 10.3623C31.6832 10.3623 31.8076 10.4612 31.8076 10.584C31.8076 10.7061 31.6832 10.8055 31.5294 10.8055C31.3758 10.8055 31.2512 10.7061 31.2512 10.584ZM31.5294 10.7523C31.6464 10.7523 31.7408 10.6768 31.7408 10.584C31.7408 10.491 31.6464 10.4155 31.5294 10.4155C31.4126 10.4155 31.3178 10.491 31.3178 10.584C31.3178 10.6768 31.4126 10.7523 31.5294 10.7523ZM31.4918 10.6808H31.4348V10.4865H31.5382C31.5596 10.4865 31.5818 10.4868 31.6004 10.4962C31.6204 10.507 31.6318 10.5255 31.6318 10.5449C31.6318 10.5669 31.6156 10.5875 31.5892 10.5953L31.6344 10.6808H31.571L31.5336 10.604H31.4918V10.6808ZM31.4918 10.5707H31.5232C31.535 10.5707 31.5478 10.5714 31.5582 10.5669C31.5676 10.5621 31.5724 10.5531 31.5724 10.5445C31.5724 10.5373 31.5668 10.5287 31.5586 10.5244C31.5488 10.5199 31.5326 10.5212 31.522 10.5212H31.4918V10.5707Z" fill="white"/>
</svg>
