<svg width="32" height="32" viewBox="0 0 32 32" fill="none" xmlns="http://www.w3.org/2000/svg">
<path d="M16 1.17292C14.9067 1.17292 13.8132 1.58883 12.9812 2.42083L7.66874 7.73333H7.82916C9.18383 7.73333 10.4525 8.25666 11.4125 9.21667L15.1354 12.9396C15.6154 13.4089 16.3846 13.4089 16.8646 12.9396L20.5875 9.21667C21.5475 8.25667 22.8162 7.73334 24.1708 7.73334H24.3312L19.0187 2.42084C18.1867 1.58884 17.0933 1.17292 16 1.17292ZM6.06874 9.33333L2.42083 12.9812C0.756833 14.6452 0.756833 17.3547 2.42083 19.0187L6.06874 22.6667H7.82916C8.75716 22.6667 9.63266 22.3048 10.2833 21.6542L14.0062 17.9312C15.1049 16.8326 16.8951 16.8326 17.9937 17.9312L21.7166 21.6542C22.3673 22.3048 23.2428 22.6667 24.1708 22.6667H25.9312L29.5791 19.0187C31.2431 17.3547 31.2431 14.6452 29.5791 12.9812L25.9312 9.33333H24.1708C23.2428 9.33333 22.3673 9.69516 21.7166 10.3458L17.9937 14.0687C17.4497 14.6127 16.7253 14.8917 16 14.8917C15.2747 14.8917 14.5502 14.6127 14.0062 14.0687L10.2833 10.3458C9.63266 9.69516 8.75716 9.33333 7.82916 9.33333H6.06874ZM16 18.7083C15.688 18.7083 15.3754 18.8257 15.1354 19.0604L11.4125 22.7833C10.4525 23.7433 9.18383 24.2667 7.82916 24.2667H7.66874L12.9812 29.5792C14.6452 31.2432 17.3547 31.2432 19.0187 29.5792L24.3312 24.2667H24.1708C22.8162 24.2667 21.5475 23.7433 20.5875 22.7833L16.8646 19.0604C16.6246 18.8258 16.312 18.7083 16 18.7083Z" fill="#382020"/>
</svg>
