<svg width="32" height="32" viewBox="0 0 32 32" fill="none" xmlns="http://www.w3.org/2000/svg">
<path d="M7.55565 29.3333C6.95565 29.3333 6.4352 29.113 5.99431 28.6723C5.55365 28.2314 5.33331 27.711 5.33331 27.111V10.2223C5.33331 9.62232 5.55365 9.10188 5.99431 8.66099C6.4352 8.22032 6.95565 7.99999 7.55565 7.99999H10.889V7.77766C10.889 6.35543 11.3852 5.1481 12.3776 4.15566C13.3703 3.16299 14.5778 2.66666 16 2.66666C17.4222 2.66666 18.6296 3.16299 19.6223 4.15566C20.6148 5.1481 21.111 6.35543 21.111 7.77766V7.99999H24.4443C25.0443 7.99999 25.5648 8.22032 26.0056 8.66099C26.4463 9.10188 26.6666 9.62232 26.6666 10.2223V27.111C26.6666 27.711 26.4463 28.2314 26.0056 28.6723C25.5648 29.113 25.0443 29.3333 24.4443 29.3333H7.55565ZM7.55565 27.111H24.4443V10.2223H21.111V13.111C21.111 13.4259 21.0042 13.6898 20.7906 13.9027C20.5769 14.1158 20.312 14.2223 19.996 14.2223C19.6802 14.2223 19.4168 14.1158 19.2056 13.9027C18.9945 13.6898 18.889 13.4259 18.889 13.111V10.2223H13.111V13.111C13.111 13.4259 13.0042 13.6898 12.7906 13.9027C12.5769 14.1158 12.312 14.2223 11.996 14.2223C11.6802 14.2223 11.4168 14.1158 11.2056 13.9027C10.9945 13.6898 10.889 13.4259 10.889 13.111V10.2223H7.55565V27.111ZM13.111 7.99999H18.889V7.77766C18.889 6.97032 18.6093 6.28699 18.05 5.72766C17.4906 5.16855 16.8073 4.88899 16 4.88899C15.1926 4.88899 14.5093 5.16855 13.95 5.72766C13.3906 6.28699 13.111 6.97032 13.111 7.77766V7.99999Z" fill="#382020"/>
</svg>
