<svg width="12" height="12" viewBox="0 0 12 12" fill="none" xmlns="http://www.w3.org/2000/svg">
<g clip-path="url(#clip0_37_89)">
<path d="M11.333 8.333C10.5 8.333 9.70049 8.20049 8.953 7.954C8.71949 7.87901 8.46 7.93351 8.2735 8.11201L6.807 9.57851C4.92051 8.62101 3.37401 7.07951 2.41351 5.18752L3.88001 3.71403C4.06652 3.54002 4.12102 3.28053 4.04602 3.04702C3.79951 2.29951 3.66702 1.50002 3.66702 0.667028C3.66702 0.301535 3.36553 2.28505e-05 3.00002 2.28505e-05H0.667006C0.301489 0 0 0.301489 0 0.667006C0 6.92701 5.07299 12 11.333 12C11.6985 12 12 11.6985 12 11.333V8.99998C12 8.63449 11.6985 8.333 11.333 8.333ZM10.666 5.99999H12C12 2.6855 9.3145 0 5.99999 0V1.33399C8.57949 1.33399 10.666 3.42049 10.666 5.99999ZM8.00098 5.99999H9.33198C9.33198 4.16 7.83998 2.668 5.99999 2.668V3.99899C7.10549 3.99899 8.00098 4.8945 8.00098 5.99999Z" fill="#943D36"/>
</g>
<defs>
<clipPath id="clip0_37_89">
<rect width="12" height="12" fill="white"/>
</clipPath>
</defs>
</svg>
