<svg width="32" height="32" viewBox="0 0 32 32" fill="none" xmlns="http://www.w3.org/2000/svg">
<path d="M7.04 2.56006C4.56576 2.56006 2.56 4.56582 2.56 7.04006V24.9601C2.56 27.4343 4.56576 29.4401 7.04 29.4401H24.96C27.4342 29.4401 29.44 27.4343 29.44 24.9601V7.04006C29.44 4.56582 27.4342 2.56006 24.96 2.56006H7.04ZM8.375 8.32006H13.455L17.0625 13.4463L21.44 8.32006H23.04L17.785 14.4726L24.265 23.6801H19.1862L15 17.7326L9.92 23.6801H8.32L14.2775 16.7063L8.375 8.32006ZM10.825 9.60006L19.8537 22.4001H21.815L12.7862 9.60006H10.825Z" fill="#372020"/>
</svg>
