<svg width="36" height="18" viewBox="0 0 36 18" fill="none" xmlns="http://www.w3.org/2000/svg">
<g clip-path="url(#clip0_37_309)">
<path d="M34.08 0H1.92C0.859613 0 0 0.684405 0 1.52866V16.4713C0 17.3156 0.859613 18 1.92 18H34.08C35.1404 18 36 17.3156 36 16.4713V1.52866C36 0.684405 35.1404 0 34.08 0Z" fill="#0E4595"/>
<path d="M13.3535 12.7731L14.9548 5.29175H17.516L15.9136 12.7731H13.3535Z" fill="white"/>
<path d="M25.1668 5.45313C24.6593 5.30157 23.8642 5.13892 22.8713 5.13892C20.3405 5.13892 18.5578 6.1536 18.5426 7.60786C18.5284 8.68285 19.8153 9.28255 20.7868 9.64041C21.7837 10.0071 22.1189 10.241 22.1141 10.5684C22.1078 11.0699 21.318 11.299 20.5818 11.299C19.5567 11.299 19.0121 11.1856 18.171 10.9063L17.8409 10.7874L17.4815 12.4622C18.0797 12.671 19.1859 12.8519 20.3345 12.8613C23.0268 12.8613 24.7745 11.8582 24.7944 10.3053C24.8041 9.45425 24.1217 8.80656 22.6441 8.27264C21.7488 7.92655 21.2006 7.6956 21.2064 7.34516C21.2064 7.03419 21.6704 6.70167 22.6731 6.70167C23.5107 6.69131 24.1173 6.83672 24.59 6.98829L24.8196 7.07462L25.1668 5.45313Z" fill="white"/>
<path d="M31.7575 5.29175H29.7784C29.1653 5.29175 28.7065 5.42497 28.4372 5.91216L24.6335 12.7683H27.323C27.323 12.7683 27.7627 11.8465 27.8622 11.6441C28.1561 11.6441 30.7688 11.6473 31.1423 11.6473C31.2189 11.9092 31.4539 12.7683 31.4539 12.7683H33.8305L31.7575 5.29175ZM28.6175 10.1226C28.8293 9.69154 29.6379 8.03126 29.6379 8.03126C29.6228 8.05118 29.8482 7.59812 29.9775 7.31723L30.1507 7.96225C30.1507 7.96225 30.6411 9.74807 30.7435 10.1226H28.6175V10.1226Z" fill="white"/>
<path d="M2.20218 5.29175L2.16946 5.44745C3.18183 5.64257 4.08607 5.92491 4.87771 6.2762L7.15031 12.7612L9.86015 12.7587L13.8923 5.29175H11.1793L8.67178 10.3935L8.40459 9.35674C8.39223 9.32509 8.37885 9.29333 8.36512 9.26157L7.49315 5.92337C7.33811 5.44963 6.88842 5.30826 6.33215 5.29175H2.20218Z" fill="white"/>
</g>
<defs>
<clipPath id="clip0_37_309">
<rect width="36" height="18" fill="white"/>
</clipPath>
</defs>
</svg>
