<svg width="12" height="12" viewBox="0 0 12 12" fill="none" xmlns="http://www.w3.org/2000/svg">
<g clip-path="url(#clip0_37_125)">
<path d="M12 5.84547C12 9.07387 9.3628 11.6909 6.10907 11.6909C5.07613 11.6909 4.10573 11.4269 3.26147 10.9636L0 12L1.06333 8.86373C0.526933 7.98293 0.218 6.94987 0.218 5.84547C0.218 2.61707 2.85547 0 6.10907 0C9.36307 0 12 2.61707 12 5.84547ZM6.10907 0.930933C3.37787 0.930933 1.15627 3.1356 1.15627 5.84547C1.15627 6.9208 1.5068 7.91667 2.09973 8.7268L1.48093 10.552L3.38427 9.94707C4.16627 10.4605 5.10307 10.76 6.1092 10.76C8.84 10.76 11.062 8.5556 11.062 5.84573C11.062 3.13587 8.84013 0.930933 6.10907 0.930933ZM9.08387 7.19173C9.04747 7.13213 8.95133 7.09613 8.80707 7.02453C8.66253 6.95293 7.9524 6.60613 7.8204 6.55853C7.688 6.5108 7.59147 6.4868 7.49533 6.63013C7.3992 6.7736 7.1224 7.09613 7.038 7.19173C6.95373 7.2876 6.8696 7.2996 6.72507 7.22787C6.5808 7.15627 6.1156 7.0048 5.564 6.5168C5.1348 6.13707 4.84493 5.66827 4.76067 5.52467C4.67653 5.38133 4.75187 5.30387 4.824 5.23253C4.88907 5.16827 4.96853 5.0652 5.04067 4.9816C5.11307 4.89787 5.13707 4.83827 5.18493 4.74253C5.23333 4.64693 5.2092 4.56333 5.17293 4.49147C5.13693 4.41987 4.84787 3.7148 4.7276 3.42787C4.60733 3.1412 4.4872 3.18893 4.4028 3.18893C4.31867 3.18893 4.22227 3.17693 4.126 3.17693C4.02973 3.17693 3.8732 3.2128 3.7408 3.35613C3.60853 3.4996 3.2356 3.84627 3.2356 4.5512C3.2356 5.25627 3.7528 5.93747 3.8252 6.03293C3.89733 6.1284 4.82387 7.62227 6.29187 8.196C7.76 8.76947 7.76 8.57813 8.0248 8.55413C8.28933 8.53027 8.87893 8.2076 8.99973 7.8732C9.11973 7.53827 9.11973 7.25147 9.08387 7.19173Z" fill="#943D36"/>
</g>
<defs>
<clipPath id="clip0_37_125">
<rect width="12" height="12" fill="white"/>
</clipPath>
</defs>
</svg>
